<?xml version="1.0" encoding="UTF-8"?>
<svg version="1.1" xmlns="http://www.w3.org/2000/svg" width="577" height="433">
<path d="M0 0 C4.81523447 3.02351932 6.16259943 5.14574695 7.6875 10.6875 C7.86122925 13.42993563 7.9413143 16.06538089 7.91455078 18.80419922 C7.91484283 19.59511459 7.91513489 20.38602997 7.91543579 21.20091248 C7.91404973 23.7981183 7.89852287 26.39503219 7.8828125 28.9921875 C7.87907979 30.79965051 7.87623404 32.60711554 7.87423706 34.4145813 C7.8666209 39.15911499 7.8469898 43.90352517 7.8248291 48.64801025 C7.80432715 53.49448984 7.79522605 58.34098949 7.78515625 63.1875 C7.76374196 72.6875541 7.72963044 82.18751676 7.6875 91.6875 C21.22138813 84.23089877 21.22138813 84.23089877 34.5625 76.4375 C44.99732973 70.26272246 54.69190481 65.10751122 66.6875 62.6875 C67.48414063 62.50316406 68.28078125 62.31882813 69.1015625 62.12890625 C87.13757227 59.05025201 104.52978382 64.66250671 119.81542969 73.95532227 C124.64990902 76.87105083 129.5480096 79.67681834 134.44042969 82.49389648 C136.21353793 83.51499473 137.98572258 84.53768257 139.7578125 85.56054688 C145.16355336 88.73274785 145.16355336 88.73274785 150.6875 91.6875 C150.67750725 90.18865517 150.67750725 90.18865517 150.66731262 88.65953064 C150.60641698 79.22869766 150.5614868 69.79790473 150.53206348 60.36691952 C150.51642798 55.51869937 150.49522835 50.67063835 150.46118164 45.82250977 C150.42851275 41.14111842 150.41063108 36.45987983 150.40286827 31.77838326 C150.39733827 29.99505777 150.38653952 28.21174035 150.37030983 26.42848015 C150.34843527 23.9247132 150.34553723 21.42157221 150.34692383 18.91772461 C150.336138 18.18548172 150.32535217 17.45323883 150.3142395 16.69880676 C150.34829844 10.99062911 151.58158401 6.46348017 155.0625 1.875 C159.53927595 -1.39649012 164.25295295 -2.0200165 169.6875 -1.3125 C172.17616258 -0.50016297 174.33486596 0.51118298 176.6875 1.6875 C176.6875 2.3475 176.6875 3.0075 176.6875 3.6875 C177.26910889 3.81189453 177.85071777 3.93628906 178.44995117 4.06445312 C180.7044328 4.69221495 182.44991865 5.51693021 184.48828125 6.65625 C185.21047852 7.0579541 185.93267578 7.4596582 186.67675781 7.87353516 C187.44342773 8.30714355 188.21009766 8.74075195 189 9.1875 C189.79889648 9.63528809 190.59779297 10.08307617 191.42089844 10.54443359 C197.09526632 13.74232428 202.70493849 17.03829719 208.26708984 20.42724609 C211.90351539 22.63923376 215.57831845 24.75074228 219.30639648 26.80419922 C234.75112638 35.36732641 234.75112638 35.36732641 238.04733467 44.44602013 C239.08400532 48.07582681 239.11384313 51.56176214 239.09155273 55.31567383 C239.10184761 56.54913292 239.10184761 56.54913292 239.11235046 57.80751038 C239.13052617 60.50336389 239.12679338 63.1986301 239.12109375 65.89453125 C239.12566081 67.78488858 239.13096793 69.67524425 239.13697815 71.56559753 C239.1458918 75.52044433 239.14350702 79.47508902 239.13354492 83.42993164 C239.12207258 88.47339558 239.14224911 93.51615753 239.17146206 98.5595293 C239.1898991 102.46229921 239.18951645 106.36490334 239.18382454 110.26770592 C239.18367216 112.12586131 239.18964678 113.98402854 239.20211601 115.84214211 C239.28380945 130.01331761 238.40757635 140.8857841 228.08984375 151.5546875 C225.32279985 154.01128257 222.63193696 155.6602601 219.328125 157.2890625 C215.82291365 159.14537265 212.59427775 161.34035196 209.3125 163.5625 C204.01781487 167.13151485 198.6943139 170.63621191 193.29296875 174.04296875 C191.51951824 175.16234306 189.75146369 176.29030196 187.98828125 177.42578125 C172.69008895 187.26812751 161.04536603 194.70253551 142.3125 190.8125 C134.76564513 188.4763124 128.82884693 183.47106614 122.6875 178.6875 C121.16163861 177.51278663 119.63558883 176.33831793 118.109375 175.1640625 C115.06768567 172.8148714 112.03500549 170.4548543 109.01171875 168.08203125 C108.30813232 167.52999023 107.6045459 166.97794922 106.87963867 166.40917969 C105.33705978 165.19765654 103.79566229 163.98462841 102.25512695 162.77050781 C101.45937256 162.1462793 100.66361816 161.52205078 99.84375 160.87890625 C99.12380859 160.31244385 98.40386719 159.74598145 97.66210938 159.16235352 C90.64338526 153.9200053 83.20083878 153.09216162 74.6875 153.6875 C66.19995438 155.55763717 60.15399478 159.67198244 53.5 165 C46.88072829 170.21946529 40.21024747 175.35591627 33.4375 180.375 C32.65221924 180.9625708 31.86693848 181.5501416 31.05786133 182.15551758 C20.8039993 189.72329071 11.44139614 192.72829722 -1.3125 191.6875 C-8.92425872 190.34756023 -14.87772357 186.8018896 -21.3125 182.6875 C-23.63295538 181.33009587 -25.97208549 180.01034298 -28.3125 178.6875 C-28.3125 178.0275 -28.3125 177.3675 -28.3125 176.6875 C-28.85519531 176.59984375 -29.39789063 176.5121875 -29.95703125 176.421875 C-33.0735343 175.45022894 -35.32203423 173.79982391 -38 171.9375 C-42.97361627 168.5469494 -48.0092195 165.52313161 -53.3125 162.6875 C-56.375 161 -56.375 161 -58.3125 159.6875 C-58.3125 159.0275 -58.3125 158.3675 -58.3125 157.6875 C-60.2925 157.0275 -62.2725 156.3675 -64.3125 155.6875 C-64.3125 155.0275 -64.3125 154.3675 -64.3125 153.6875 C-64.89 153.60242188 -65.4675 153.51734375 -66.0625 153.4296875 C-68.97884795 152.46769772 -70.24953824 151.07692287 -72.3125 148.8125 C-73.3025 147.76449219 -73.3025 147.76449219 -74.3125 146.6953125 C-81.29605444 136.19270132 -80.90504779 125.24151066 -80.84375 113.1171875 C-80.84644988 111.22632651 -80.85033642 109.33546688 -80.85534668 107.4446106 C-80.8612155 103.49923363 -80.85276176 99.55422104 -80.83398438 95.60888672 C-80.81116495 90.57088758 -80.82435349 85.5337396 -80.84827423 80.49577141 C-80.86277645 76.59735784 -80.85810653 72.69914383 -80.84776306 68.80072403 C-80.84510962 66.94371564 -80.84831645 65.08668867 -80.85768127 63.229702 C-80.94071975 42.14584566 -80.94071975 42.14584566 -73.5625 34.6875 C-68.77398667 30.98774339 -63.34376292 28.2220456 -58.05078125 25.3203125 C-52.61300172 22.32633506 -47.27612143 19.16648876 -41.9375 16 C-41.03507568 15.46560303 -40.13265137 14.93120605 -39.20288086 14.38061523 C-38.3238208 13.85927002 -37.44476074 13.3379248 -36.5390625 12.80078125 C-35.67829102 12.29111816 -34.81751953 11.78145508 -33.93066406 11.25634766 C-32.12138067 10.17219482 -30.32176105 9.07180912 -28.53027344 7.95849609 C-27.64114258 7.40887207 -26.75201172 6.85924805 -25.8359375 6.29296875 C-25.03849121 5.7930542 -24.24104492 5.29313965 -23.41943359 4.77807617 C-21.3125 3.6875 -21.3125 3.6875 -18.3125 3.6875 C-18.3125 3.0275 -18.3125 2.3675 -18.3125 1.6875 C-11.92748486 -1.50500757 -6.93993684 -2.74978629 0 0 Z " fill="#DDDC1B" transform="translate(209.3125,121.3125)"/>
<path d="M0 0 C4.81523447 3.02351932 6.16259943 5.14574695 7.6875 10.6875 C7.86122925 13.42993563 7.9413143 16.06538089 7.91455078 18.80419922 C7.91484283 19.59511459 7.91513489 20.38602997 7.91543579 21.20091248 C7.91404973 23.7981183 7.89852287 26.39503219 7.8828125 28.9921875 C7.87907979 30.79965051 7.87623404 32.60711554 7.87423706 34.4145813 C7.8666209 39.15911499 7.8469898 43.90352517 7.8248291 48.64801025 C7.80432715 53.49448984 7.79522605 58.34098949 7.78515625 63.1875 C7.76374196 72.6875541 7.72963044 82.18751676 7.6875 91.6875 C8.3475 92.0175 9.0075 92.3475 9.6875 92.6875 C8.6975 93.1825 8.6975 93.1825 7.6875 93.6875 C7.59474735 104.14488765 7.5237082 114.60217715 7.48025131 125.05989265 C7.45939225 129.91605299 7.4311053 134.77193152 7.38574219 139.62792969 C7.34222449 144.31581256 7.31835024 149.00342468 7.30799103 153.69149399 C7.30061029 155.47845598 7.28619729 157.26540344 7.26457977 159.05224991 C7.23546655 161.55875718 7.23154723 164.06415115 7.23339844 166.57080078 C7.21901733 167.30663895 7.20463623 168.04247711 7.18981934 168.8006134 C7.23048795 173.90240158 8.51155857 176.74140546 11.6875 180.6875 C16.27226422 184.85546748 21.85920636 183.96309357 27.6875 183.6875 C21.58689435 190.11013176 13.36064503 191.75889847 4.8125 192 C-5.48340969 191.78011248 -12.7751121 188.14629727 -21.3125 182.6875 C-23.63295538 181.33009587 -25.97208549 180.01034298 -28.3125 178.6875 C-28.3125 178.0275 -28.3125 177.3675 -28.3125 176.6875 C-28.85519531 176.59984375 -29.39789063 176.5121875 -29.95703125 176.421875 C-33.0735343 175.45022894 -35.32203423 173.79982391 -38 171.9375 C-42.97361627 168.5469494 -48.0092195 165.52313161 -53.3125 162.6875 C-56.375 161 -56.375 161 -58.3125 159.6875 C-58.3125 159.0275 -58.3125 158.3675 -58.3125 157.6875 C-60.2925 157.0275 -62.2725 156.3675 -64.3125 155.6875 C-64.3125 155.0275 -64.3125 154.3675 -64.3125 153.6875 C-64.89 153.60242188 -65.4675 153.51734375 -66.0625 153.4296875 C-68.97884795 152.46769772 -70.24953824 151.07692287 -72.3125 148.8125 C-73.3025 147.76449219 -73.3025 147.76449219 -74.3125 146.6953125 C-81.29605444 136.19270132 -80.90504779 125.24151066 -80.84375 113.1171875 C-80.84644988 111.22632651 -80.85033642 109.33546688 -80.85534668 107.4446106 C-80.8612155 103.49923363 -80.85276176 99.55422104 -80.83398438 95.60888672 C-80.81116495 90.57088758 -80.82435349 85.5337396 -80.84827423 80.49577141 C-80.86277645 76.59735784 -80.85810653 72.69914383 -80.84776306 68.80072403 C-80.84510962 66.94371564 -80.84831645 65.08668867 -80.85768127 63.229702 C-80.94071975 42.14584566 -80.94071975 42.14584566 -73.5625 34.6875 C-68.77398667 30.98774339 -63.34376292 28.2220456 -58.05078125 25.3203125 C-52.61300172 22.32633506 -47.27612143 19.16648876 -41.9375 16 C-41.03507568 15.46560303 -40.13265137 14.93120605 -39.20288086 14.38061523 C-38.3238208 13.85927002 -37.44476074 13.3379248 -36.5390625 12.80078125 C-35.67829102 12.29111816 -34.81751953 11.78145508 -33.93066406 11.25634766 C-32.12138067 10.17219482 -30.32176105 9.07180912 -28.53027344 7.95849609 C-27.64114258 7.40887207 -26.75201172 6.85924805 -25.8359375 6.29296875 C-25.03849121 5.7930542 -24.24104492 5.29313965 -23.41943359 4.77807617 C-21.3125 3.6875 -21.3125 3.6875 -18.3125 3.6875 C-18.3125 3.0275 -18.3125 2.3675 -18.3125 1.6875 C-11.92748486 -1.50500757 -6.93993684 -2.74978629 0 0 Z " fill="#D6DD1A" transform="translate(209.3125,121.3125)"/>
<path d="M0 0 C24.40669993 0.01839869 24.40669993 0.01839869 31.375 2.19018555 C32.365 3.67518555 32.365 3.67518555 33.375 5.19018555 C36.44056598 5.92361983 36.44056598 5.92361983 39.375 6.19018555 C39.375 6.85018555 39.375 7.51018555 39.375 8.19018555 C40.4475 8.14893555 41.52 8.10768555 42.625 8.06518555 C46.375 8.19018555 46.375 8.19018555 48.296875 9.17456055 C52.09504612 11.03080959 56.25431921 10.77885423 60.375 10.19018555 C63.01016042 8.39827097 63.01016042 8.39827097 64.375 6.19018555 C66.355 7.18018555 66.355 7.18018555 68.375 8.19018555 C68.375 7.20018555 68.375 6.21018555 68.375 5.19018555 C70.355 5.19018555 72.335 5.19018555 74.375 5.19018555 C74.375 5.85018555 74.375 6.51018555 74.375 7.19018555 C76.025 7.19018555 77.675 7.19018555 79.375 7.19018555 C79.74856829 24.18949447 80.08174975 41.18930062 80.375 58.19018555 C80.39151611 59.11285217 80.40803223 60.0355188 80.42504883 60.98614502 C80.51688926 66.17918122 80.58129363 71.37151924 80.625 76.56518555 C80.6569043 78.4205896 80.6569043 78.4205896 80.68945312 80.31347656 C80.6962207 81.99654907 80.6962207 81.99654907 80.703125 83.71362305 C80.7124707 84.66156738 80.72181641 85.60951172 80.73144531 86.58618164 C80.12729905 90.99975978 78.10211636 93.55174191 74.8125 96.44018555 C71.65784255 98.70506782 69.95490406 99.36202424 66.125 99.44018555 C65.37734375 99.4659668 64.6296875 99.49174805 63.859375 99.51831055 C58.09607883 98.75712049 53.76009252 95.13065664 49.3125 91.62768555 C48.17591164 90.73819599 47.03918878 89.84887828 45.90234375 88.9597168 C45.03391846 88.27643311 45.03391846 88.27643311 44.14794922 87.5793457 C41.24117302 85.30179729 38.30667161 83.06053242 35.375 80.81518555 C32.45321988 78.5727193 29.54379891 76.3271356 26.68359375 74.0065918 C19.64941957 68.47208927 12.05233857 67.58337865 3.375 68.19018555 C-5.22039637 70.08408644 -11.32043928 74.29842246 -18.0625 79.69018555 C-19.65501733 80.94565697 -21.24878869 82.19953919 -22.84375 83.4519043 C-23.64039063 84.07758301 -24.43703125 84.70326172 -25.2578125 85.34790039 C-28.81995123 88.12016719 -32.42892934 90.8249853 -36.0625 93.50268555 C-36.6824585 93.96416992 -37.30241699 94.4256543 -37.94116211 94.90112305 C-43.46987131 98.95411542 -47.8760052 100.0106969 -54.625 99.19018555 C-59.51947668 96.78912151 -62.00436635 93.92157234 -64.625 89.19018555 C-64.98536442 86.34588554 -65.13444935 83.90546743 -65.07910156 81.07348633 C-65.07968567 80.28257095 -65.08026978 79.49165558 -65.08087158 78.67677307 C-65.0780991 76.0792249 -65.04704806 73.48284414 -65.015625 70.88549805 C-65.0081596 69.07803982 -65.00246808 67.27057348 -64.99847412 65.46310425 C-64.98324125 60.71839845 -64.94397984 55.97418665 -64.8996582 51.22967529 C-64.85865472 46.38324668 -64.84045228 41.53673782 -64.8203125 36.69018555 C-64.77748318 27.18996915 -64.70926042 17.69011852 -64.625 8.19018555 C-63.635 7.86018555 -62.645 7.53018555 -61.625 7.19018555 C-61.625 6.53018555 -61.625 5.87018555 -61.625 5.19018555 C-57.005 3.87018555 -52.385 2.55018555 -47.625 1.19018555 C-46.965 2.18018555 -46.305 3.17018555 -45.625 4.19018555 C-45.955 4.85018555 -46.285 5.51018555 -46.625 6.19018555 C-43.33803767 6.98971692 -41.91476808 7.28677491 -38.625 6.19018555 C-37.28464364 6.01589772 -35.94000936 5.87317269 -34.59375 5.75268555 C-29.36813576 5.21064452 -24.26994377 4.23738649 -19.125 3.19018555 C-18.22007812 3.01229492 -17.31515625 2.8344043 -16.3828125 2.65112305 C-15.52429688 2.47838867 -14.66578125 2.3056543 -13.78125 2.12768555 C-13.00587891 1.97170898 -12.23050781 1.81573242 -11.43164062 1.6550293 C-7.41110056 0.6205552 -4.58187919 0.03055034 0 0 Z " fill="#09785F" transform="translate(280.625,206.809814453125)"/>
<path d="M0 0 C0.00546844 1.48338364 0.00546844 1.48338364 0.01104736 2.99673462 C0.04801923 12.32509695 0.10581583 21.65312982 0.18390274 30.98124123 C0.22337984 35.77673316 0.25556718 40.5720414 0.27099609 45.36767578 C0.28616115 49.99741917 0.32060396 54.62665756 0.36830902 59.25617599 C0.38312438 61.02072124 0.39104111 62.78533859 0.39188385 64.54994583 C0.39425485 67.02554145 0.42134341 69.49974299 0.45410156 71.97509766 C0.4490712 72.70158508 0.44404083 73.42807251 0.43885803 74.17657471 C0.54207795 79.23177306 1.86239331 82.0822655 5 86 C9.58476422 90.16796748 15.17170636 89.27559357 21 89 C14.89939435 95.42263176 6.67314503 97.07139847 -1.875 97.3125 C-12.17090969 97.09261248 -19.4626121 93.45879727 -28 88 C-30.32045538 86.64259587 -32.65958549 85.32284298 -35 84 C-35 83.34 -35 82.68 -35 82 C-35.54269531 81.91234375 -36.08539063 81.8246875 -36.64453125 81.734375 C-39.7610343 80.76272894 -42.00953423 79.11232391 -44.6875 77.25 C-49.66111627 73.8594494 -54.6967195 70.83563161 -60 68 C-63.0625 66.3125 -63.0625 66.3125 -65 65 C-65 64.34 -65 63.68 -65 63 C-66.98 62.34 -68.96 61.68 -71 61 C-71 60.34 -71 59.68 -71 59 C-71.57492188 58.92394531 -72.14984375 58.84789062 -72.7421875 58.76953125 C-75.7732364 57.73645749 -77.04703602 56.10125664 -79.125 53.6875 C-79.80820313 52.90761719 -80.49140625 52.12773437 -81.1953125 51.32421875 C-84.22534146 47.42190873 -85.25305351 44.76260219 -85.1953125 39.796875 C-85.18886719 38.8171875 -85.18242187 37.8375 -85.17578125 36.828125 C-85.15902344 35.81234375 -85.14226562 34.7965625 -85.125 33.75 C-85.11597656 32.71875 -85.10695312 31.6875 -85.09765625 30.625 C-85.07412011 28.08309713 -85.04124023 25.5416672 -85 23 C-84.67 23 -84.34 23 -84 23 C-83.67 24.65 -83.34 26.3 -83 28 C-82.34 28 -81.68 28 -81 28 C-80.87625 28.556875 -80.7525 29.11375 -80.625 29.6875 C-79.94023145 32.22114364 -79.00866237 34.57921032 -78 37 C-75.6739143 37.38063221 -73.33944736 37.71269945 -71 38 C-70.505 37.505 -70.505 37.505 -70 37 C-68.33382885 36.95936168 -66.66611905 36.957279 -65 37 C-64.67 35.68 -64.34 34.36 -64 33 C-63.401875 32.855625 -62.80375 32.71125 -62.1875 32.5625 C-58.03627008 31.54948068 -58.03627008 31.54948068 -55.125 28.5 C-52.65584331 25.59510977 -51.6648449 25.45810561 -48 25 C-47.29875 24.649375 -46.5975 24.29875 -45.875 23.9375 C-44 23 -44 23 -41 23 C-41 22.34 -41 21.68 -41 21 C-38.21460964 18.5838358 -35.16497179 16.94766508 -31.875 15.3125 C-30.57175781 14.65701172 -30.57175781 14.65701172 -29.2421875 13.98828125 C-27 13 -27 13 -25 13 C-24.67 12.01 -24.34 11.02 -24 10 C-21.55859375 9.26171875 -21.55859375 9.26171875 -18.4375 8.6875 C-12.34191316 7.32888887 -8.67018526 4.99959456 -4 1 C-2 0 -2 0 0 0 Z " fill="#88BF0B" transform="translate(216,216)"/>
<path d="M0 0 C0.89319946 0.4494397 0.89319946 0.4494397 1.80444336 0.90795898 C4.69904452 2.34769556 7.62886599 3.70415069 10.5625 5.0625 C12.26599609 5.85333984 12.26599609 5.85333984 14.00390625 6.66015625 C16.9621928 8.04218056 16.9621928 8.04218056 20 9 C20 9.66 20 10.32 20 11 C20.70125 11.0825 21.4025 11.165 22.125 11.25 C25.66477388 12.17341927 27.99711174 13.93551432 31 16 C31.928125 16.37125 32.85625 16.7425 33.8125 17.125 C36 18 36 18 37 20 C39.25446462 21.26285017 41.49328933 22.43203048 43.8125 23.5625 C44.44220703 23.87896484 45.07191406 24.19542969 45.72070312 24.52148438 C49.36095345 26.33428748 49.36095345 26.33428748 53.26171875 27.40234375 C55.9685126 28.33299422 56.58266116 30.59266066 58 33 C60.27836083 34.82448142 60.27836083 34.82448142 62.875 36.25 C63.71804688 36.75015625 64.56109375 37.2503125 65.4296875 37.765625 C68.0865012 39.04154161 70.05946679 39.78439148 73 40 C75.65975557 39.1287161 75.65975557 39.1287161 78.1875 37.6875 C79.47720703 37.01267578 79.47720703 37.01267578 80.79296875 36.32421875 C83.10089861 35.06079181 83.10089861 35.06079181 85 33 C85.05389087 34.95803507 85.09274217 36.91648909 85.125 38.875 C85.14820313 39.96554688 85.17140625 41.05609375 85.1953125 42.1796875 C85 45 85 45 83 47 C82.67 47 82.34 47 82 47 C82.2165625 48.2684375 82.2165625 48.2684375 82.4375 49.5625 C81.78440975 54.69392336 78.97103507 56.89416252 75 60 C72.94759318 61.27191408 70.85568551 62.38711995 68.7109375 63.49609375 C65.21554244 65.43518179 61.9359991 67.63920517 58.625 69.875 C53.3298001 73.44327554 48.00684202 76.94869417 42.60546875 80.35546875 C40.83201824 81.47484306 39.06396369 82.60280196 37.30078125 83.73828125 C11.37131782 100.42043247 11.37131782 100.42043247 -5.96875 97.5 C-11.98574991 96.04534068 -16.22557347 93.92563959 -21 90 C-19.31575382 90 -17.62951914 90.0254044 -15.94921875 90.140625 C-10.4181234 90.40810457 -7.31851915 89.80440973 -3 86 C0.21260971 81.80654782 0.41503294 78.1012862 0.34057617 72.99682617 C0.34101425 72.20605682 0.34145233 71.41528748 0.34190369 70.60055542 C0.33982069 67.99777168 0.31651314 65.39563938 0.29296875 62.79296875 C0.28737105 60.98407849 0.28310177 59.17518367 0.28010559 57.36628723 C0.26867053 52.61344773 0.23921488 47.86088479 0.20599365 43.1081543 C0.17526389 38.25508363 0.16159404 33.40196812 0.14648438 28.54882812 C0.1143439 19.03243081 0.06316373 9.51623843 0 0 Z " fill="#8FBF0C" transform="translate(360,215)"/>
<path d="M0 0 C24.40669993 0.01839869 24.40669993 0.01839869 31.375 2.19018555 C32.365 3.67518555 32.365 3.67518555 33.375 5.19018555 C36.44056598 5.92361983 36.44056598 5.92361983 39.375 6.19018555 C39.375 6.85018555 39.375 7.51018555 39.375 8.19018555 C40.4475 8.14893555 41.52 8.10768555 42.625 8.06518555 C46.375 8.19018555 46.375 8.19018555 48.296875 9.17456055 C52.09504612 11.03080959 56.25431921 10.77885423 60.375 10.19018555 C63.01016042 8.39827097 63.01016042 8.39827097 64.375 6.19018555 C66.355 7.18018555 66.355 7.18018555 68.375 8.19018555 C68.375 7.20018555 68.375 6.21018555 68.375 5.19018555 C70.355 5.19018555 72.335 5.19018555 74.375 5.19018555 C74.375 5.85018555 74.375 6.51018555 74.375 7.19018555 C76.025 7.19018555 77.675 7.19018555 79.375 7.19018555 C79.375 23.69018555 79.375 40.19018555 79.375 57.19018555 C72.902319 53.65963227 66.81660011 50.33240146 60.8125 46.19018555 C59.53359056 45.32536659 58.25363984 44.46208552 56.97265625 43.6003418 C56.05637451 42.98376709 56.05637451 42.98376709 55.12158203 42.35473633 C52.69111474 40.73419831 50.23437739 39.16422298 47.75 37.62768555 C47.01523437 37.17264648 46.28046875 36.71760742 45.5234375 36.2487793 C43.35563411 35.05902501 43.35563411 35.05902501 40.6640625 34.6940918 C39.90867187 34.52780273 39.15328125 34.36151367 38.375 34.19018555 C37.70833333 32.52351888 37.04166667 30.85685221 36.375 29.19018555 C34.1086432 28.48538322 34.1086432 28.48538322 31.375 28.19018555 C24.71302817 25.86624188 24.71302817 25.86624188 23.375 23.19018555 C22.446875 23.46862305 22.446875 23.46862305 21.5 23.75268555 C19.375 24.19018555 19.375 24.19018555 17.375 23.19018555 C8.16276188 22.1099231 0.01036364 21.3224617 -8.625 25.19018555 C-9.34042969 25.32682617 -10.05585938 25.4634668 -10.79296875 25.60424805 C-11.69982422 25.89428711 -11.69982422 25.89428711 -12.625 26.19018555 C-13.12 27.67518555 -13.12 27.67518555 -13.625 29.19018555 C-15.4140625 29.72924805 -15.4140625 29.72924805 -17.625 30.19018555 C-19.1059306 30.93872865 -20.56394712 31.73378651 -22 32.56518555 C-31.89673913 38.19018555 -31.89673913 38.19018555 -34.625 38.19018555 C-34.625 38.85018555 -34.625 39.51018555 -34.625 40.19018555 C-35.78902344 40.74706055 -36.95304687 41.30393555 -38.15234375 41.87768555 C-42.40355946 44.00376129 -46.27971383 46.4951606 -50.1875 49.19018555 C-51.43720779 50.04668309 -52.68850352 50.90086846 -53.94140625 51.75268555 C-54.48224854 52.12522461 -55.02309082 52.49776367 -55.58032227 52.8815918 C-58.52475878 54.76603116 -61.58977073 56.45576882 -64.625 58.19018555 C-64.625 41.69018555 -64.625 25.19018555 -64.625 8.19018555 C-63.635 7.86018555 -62.645 7.53018555 -61.625 7.19018555 C-61.625 6.53018555 -61.625 5.87018555 -61.625 5.19018555 C-57.005 3.87018555 -52.385 2.55018555 -47.625 1.19018555 C-46.965 2.18018555 -46.305 3.17018555 -45.625 4.19018555 C-45.955 4.85018555 -46.285 5.51018555 -46.625 6.19018555 C-43.33803767 6.98971692 -41.91476808 7.28677491 -38.625 6.19018555 C-37.28464364 6.01589772 -35.94000936 5.87317269 -34.59375 5.75268555 C-29.36813576 5.21064452 -24.26994377 4.23738649 -19.125 3.19018555 C-18.22007812 3.01229492 -17.31515625 2.8344043 -16.3828125 2.65112305 C-15.52429688 2.47838867 -14.66578125 2.3056543 -13.78125 2.12768555 C-13.00587891 1.97170898 -12.23050781 1.81573242 -11.43164062 1.6550293 C-7.41110056 0.6205552 -4.58187919 0.03055034 0 0 Z " fill="#06D05C" transform="translate(280.625,206.809814453125)"/>
<path d="M0 0 C5.45311054 3.28711655 10.98682098 6.43686357 16.50585938 9.61157227 C17.71293787 10.30680274 18.9199694 11.00211476 20.12695312 11.69750977 C23.04446341 13.37799569 25.96244006 15.05766569 28.88085938 16.73657227 C28.88085938 17.39657227 28.88085938 18.05657227 28.88085938 18.73657227 C27.89085937 18.73657227 26.90085937 18.73657227 25.88085938 18.73657227 C25.88085938 18.07657227 25.88085938 17.41657227 25.88085938 16.73657227 C24.23085938 17.06657227 22.58085937 17.39657227 20.88085938 17.73657227 C20.55085938 19.05657227 20.22085938 20.37657227 19.88085938 21.73657227 C18.56085938 20.74657227 17.24085938 19.75657227 15.88085938 18.73657227 C15.42710937 19.39657227 14.97335937 20.05657227 14.50585938 20.73657227 C11.02239969 23.39063679 8.58488385 23.13754825 4.31835938 23.07250977 C1.75791847 22.71962849 0.1468207 21.93403151 -2.11914062 20.73657227 C-4.4440934 20.34908014 -6.77765331 20.00674388 -9.11914062 19.73657227 C-9.11914062 19.07657227 -9.11914062 18.41657227 -9.11914062 17.73657227 C-10.06789063 17.79844727 -11.01664062 17.86032227 -11.99414062 17.92407227 C-13.02539062 17.86219727 -14.05664062 17.80032227 -15.11914062 17.73657227 C-16.10914063 16.25157227 -16.10914063 16.25157227 -17.11914062 14.73657227 C-29.26355367 10.95156353 -44.57558831 11.93672084 -57.11914062 12.73657227 C-57.61414063 13.23157227 -57.61414063 13.23157227 -58.11914062 13.73657227 C-62.1493068 14.73401181 -66.23512958 15.48930656 -70.30664062 16.29907227 C-71.44423828 16.53303711 -72.58183594 16.76700195 -73.75390625 17.00805664 C-75.4100293 17.33966797 -75.4100293 17.33966797 -77.09960938 17.67797852 C-78.10918701 17.88108643 -79.11876465 18.08419434 -80.15893555 18.29345703 C-83.18822007 18.74691282 -86.06195238 18.74064526 -89.11914062 18.73657227 C-89.77914062 19.06657227 -90.43914062 19.39657227 -91.11914062 19.73657227 C-92.79568791 19.45714772 -94.46522217 19.1282898 -96.11914062 18.73657227 C-95.93351563 18.09719727 -95.74789062 17.45782227 -95.55664062 16.79907227 C-95.34007812 15.77813477 -95.34007812 15.77813477 -95.11914062 14.73657227 C-95.44914063 14.40657227 -95.77914062 14.07657227 -96.11914062 13.73657227 C-97.02664062 14.08719727 -97.93414062 14.43782227 -98.86914062 14.79907227 C-102.12505375 15.73827798 -103.04664057 15.69171902 -106.11914062 14.73657227 C-98.79882981 10.38102782 -91.46523401 6.04849099 -84.11914062 1.73657227 C-83.30493652 1.25784668 -82.49073242 0.77912109 -81.65185547 0.28588867 C-66.5324359 -8.56426209 -66.5324359 -8.56426209 -59.11914062 -10.26342773 C-58.30832031 -10.46452148 -57.4975 -10.66561523 -56.66210938 -10.87280273 C-36.4036361 -15.26263296 -17.40996645 -10.58498615 0 0 Z " fill="#62E56A" transform="translate(329.119140625,195.263427734375)"/>
<path d="M0 0 C0.99 0.33 1.98 0.66 3 1 C3.33 17.17 3.66 33.34 4 50 C5.32 50.33 6.64 50.66 8 51 C8 51.66 8 52.32 8 53 C9.32 53.33 10.64 53.66 12 54 C12 54.66 12 55.32 12 56 C13.91218803 57.3548125 13.91218803 57.3548125 16.375 58.6875 C20.08939603 60.79889551 23.31768322 63.05577426 26.625 65.75 C33.36692169 70.59475136 42.84907568 71.81010605 50.98046875 70.53125 C51.64691406 70.3559375 52.31335938 70.180625 53 70 C51.65276416 74.46034013 50.04286771 76.03360723 46.0625 78.375 C44.5775 79.26832031 44.5775 79.26832031 43.0625 80.1796875 C42.051875 80.78039062 41.04125 81.38109375 40 82 C38.18381133 83.16091605 36.37122233 84.32748523 34.5625 85.5 C20.84607285 94.1805389 10.6970806 100.30687673 -5.96875 97.5 C-11.98574991 96.04534068 -16.22557347 93.92563959 -21 90 C-19.31575382 90 -17.62951914 90.0254044 -15.94921875 90.140625 C-10.4181234 90.40810457 -7.31851915 89.80440973 -3 86 C0.21260971 81.80654782 0.41503294 78.1012862 0.34057617 72.99682617 C0.34101425 72.20605682 0.34145233 71.41528748 0.34190369 70.60055542 C0.33982069 67.99777168 0.31651314 65.39563938 0.29296875 62.79296875 C0.28737105 60.98407849 0.28310177 59.17518367 0.28010559 57.36628723 C0.26867053 52.61344773 0.23921488 47.86088479 0.20599365 43.1081543 C0.17526389 38.25508363 0.16159404 33.40196812 0.14648438 28.54882812 C0.1143439 19.03243081 0.06316373 9.51623843 0 0 Z " fill="#69B20C" transform="translate(360,215)"/>
<path d="M0 0 C0.33 0 0.66 0 1 0 C1.01401855 1.3614917 1.01401855 1.3614917 1.02832031 2.75048828 C1.07250484 6.13926814 1.13419111 9.52681226 1.20751953 12.91503906 C1.2356311 14.37748705 1.25689431 15.8400842 1.27099609 17.30273438 C1.29256419 19.41353169 1.33927656 21.52255429 1.390625 23.6328125 C1.41157227 24.90012207 1.43251953 26.16743164 1.45410156 27.47314453 C2.21980488 32.42008108 4.3942851 35.54025918 8.0625 38.875 C12.62830297 40.62360539 17.16773978 40.22849567 22 40 C15.89939435 46.42263176 7.67314503 48.07139847 -0.875 48.3125 C-11.17090969 48.09261248 -18.4626121 44.45879727 -27 39 C-29.32045538 37.64259587 -31.65958549 36.32284298 -34 35 C-34 34.34 -34 33.68 -34 33 C-34.556875 32.938125 -35.11375 32.87625 -35.6875 32.8125 C-38.99068042 31.6519231 -40.71894733 29.59786554 -43 27 C-43 26.34 -43 25.68 -43 25 C-43.9590625 24.566875 -43.9590625 24.566875 -44.9375 24.125 C-47 23 -47 23 -48 21 C-49.97888961 20.27306096 -51.97954558 19.60183749 -54 19 C-52.68 18.01 -51.36 17.02 -50 16 C-49.34 16.66 -48.68 17.32 -48 18 C-41.55014174 20.14995275 -34.3525505 19.74424886 -28.1171875 17.06640625 C-24.45689683 15.22275431 -20.87681594 13.24285703 -17.3203125 11.20703125 C-15 10 -15 10 -13 10 C-13 9.34 -13 8.68 -13 8 C-11.06753564 6.73792297 -9.07723953 5.56359129 -7.0625 4.4375 C-3.31381893 2.52358755 -3.31381893 2.52358755 0 0 Z " fill="#69B008" transform="translate(215,265)"/>
<path d="M0 0 C4.81523447 3.02351932 6.16259943 5.14574695 7.6875 10.6875 C7.86122925 13.42993563 7.9413143 16.06538089 7.91455078 18.80419922 C7.91484283 19.59511459 7.91513489 20.38602997 7.91543579 21.20091248 C7.91404973 23.7981183 7.89852287 26.39503219 7.8828125 28.9921875 C7.87907979 30.79965051 7.87623404 32.60711554 7.87423706 34.4145813 C7.8666209 39.15911499 7.8469898 43.90352517 7.8248291 48.64801025 C7.80432715 53.49448984 7.79522605 58.34098949 7.78515625 63.1875 C7.76374196 72.6875541 7.72963044 82.18751676 7.6875 91.6875 C8.3475 92.0175 9.0075 92.3475 9.6875 92.6875 C7.7075 93.6775 7.7075 93.6775 5.6875 94.6875 C5.3575 72.9075 5.0275 51.1275 4.6875 28.6875 C3.6975 30.0075 2.7075 31.3275 1.6875 32.6875 C1.1925 28.7275 1.1925 28.7275 0.6875 24.6875 C0.0275 25.3475 -0.6325 26.0075 -1.3125 26.6875 C-1.27125 25.615 -1.23 24.5425 -1.1875 23.4375 C-1.30203827 20.0013518 -1.3827161 18.42982448 -3.3125 15.6875 C-6.12759993 13.4101499 -6.12759993 13.4101499 -9.3125 13.6875 C-9.6425 14.3475 -9.9725 15.0075 -10.3125 15.6875 C-12.08984375 16.72265625 -12.08984375 16.72265625 -14.25 17.75 C-14.96027344 18.09160156 -15.67054688 18.43320313 -16.40234375 18.78515625 C-17.03269531 19.08292969 -17.66304687 19.38070312 -18.3125 19.6875 C-19.3025 20.1825 -19.3025 20.1825 -20.3125 20.6875 C-20.9725 20.0275 -21.6325 19.3675 -22.3125 18.6875 C-20.9925 18.3575 -19.6725 18.0275 -18.3125 17.6875 C-18.3125 16.3675 -18.3125 15.0475 -18.3125 13.6875 C-21.1231156 14.76214714 -23.76379543 15.92217362 -26.4375 17.3125 C-29.3125 18.6875 -29.3125 18.6875 -32.3125 18.6875 C-33.09625 19.5125 -33.88 20.3375 -34.6875 21.1875 C-37.3125 23.6875 -37.3125 23.6875 -39.9375 23.75 C-40.72125 23.729375 -41.505 23.70875 -42.3125 23.6875 C-43.9608633 25.43994247 -43.9608633 25.43994247 -45.3125 27.6875 C-47.125 30 -47.125 30 -49.3125 31.6875 C-52.5625 31.4375 -52.5625 31.4375 -55.3125 30.6875 C-55.3125 30.0275 -55.3125 29.3675 -55.3125 28.6875 C-56.3025 28.3575 -57.2925 28.0275 -58.3125 27.6875 C-58.3125 28.3475 -58.3125 29.0075 -58.3125 29.6875 C-59.93224559 31.39980248 -61.6083946 33.05913262 -63.3125 34.6875 C-66.24683516 37.55197004 -68.95017527 40.33051223 -71.3125 43.6875 C-71.8075 42.2025 -71.8075 42.2025 -72.3125 40.6875 C-72.580625 41.450625 -72.84875 42.21375 -73.125 43 C-74.3125 45.6875 -74.3125 45.6875 -75.875 47 C-79.39579597 51.13310831 -78.47370963 59.34590201 -78.51782227 64.57226562 C-78.52772186 65.3147052 -78.53762146 66.05714478 -78.54782104 66.82208252 C-78.57909673 69.24594062 -78.60405734 71.66981824 -78.62890625 74.09375 C-78.64950519 75.7862597 -78.67050238 77.4787646 -78.69187927 79.17126465 C-78.74679659 83.60331303 -78.79633831 88.03540547 -78.84472656 92.4675293 C-78.89516461 96.99922559 -78.95073369 101.53085873 -79.00585938 106.0625 C-79.11306924 114.93744591 -79.2145951 123.8124469 -79.3125 132.6875 C-79.6425 132.6875 -79.9725 132.6875 -80.3125 132.6875 C-80.40538343 121.63000152 -80.47635801 110.57259661 -80.51974869 99.51478672 C-80.5405793 94.37959018 -80.56881405 89.24466153 -80.61425781 84.10961914 C-80.65787723 79.14940208 -80.68167112 74.18944191 -80.69200897 69.22904778 C-80.69937151 67.34129737 -80.71374868 65.45356024 -80.73542023 63.56591988 C-80.96078225 43.11380496 -80.96078225 43.11380496 -74.91925049 36.06105042 C-70.25852713 31.34261578 -63.81647872 28.48119917 -58.05078125 25.3203125 C-52.61300172 22.32633506 -47.27612143 19.16648876 -41.9375 16 C-41.03507568 15.46560303 -40.13265137 14.93120605 -39.20288086 14.38061523 C-38.3238208 13.85927002 -37.44476074 13.3379248 -36.5390625 12.80078125 C-35.67829102 12.29111816 -34.81751953 11.78145508 -33.93066406 11.25634766 C-32.12138067 10.17219482 -30.32176105 9.07180912 -28.53027344 7.95849609 C-27.64114258 7.40887207 -26.75201172 6.85924805 -25.8359375 6.29296875 C-25.03849121 5.7930542 -24.24104492 5.29313965 -23.41943359 4.77807617 C-21.3125 3.6875 -21.3125 3.6875 -18.3125 3.6875 C-18.3125 3.0275 -18.3125 2.3675 -18.3125 1.6875 C-11.92748486 -1.50500757 -6.93993684 -2.74978629 0 0 Z M-29.3125 13.6875 C-29.3125 14.6775 -29.3125 15.6675 -29.3125 16.6875 C-28.6525 16.0275 -27.9925 15.3675 -27.3125 14.6875 C-27.9725 14.3575 -28.6325 14.0275 -29.3125 13.6875 Z " fill="#F8F34E" transform="translate(209.3125,121.3125)"/>
<path d="M0 0 C0.495 0.99 0.495 0.99 1 2 C0.236875 1.979375 -0.52625 1.95875 -1.3125 1.9375 C-4.10185786 1.87057159 -4.10185786 1.87057159 -7 3 C-7.495 0.525 -7.495 0.525 -8 -2 C-9.65 -1.67 -11.3 -1.34 -13 -1 C-13 -0.34 -13 0.32 -13 1 C-10.525 1.495 -10.525 1.495 -8 2 C-8 2.99 -8 3.98 -8 5 C-6.35 5 -4.7 5 -3 5 C-3 5.99 -3 6.98 -3 8 C-1.35 8.33 0.3 8.66 2 9 C2.495 10.485 2.495 10.485 3 12 C2.01 13.485 2.01 13.485 1 15 C0.30777344 14.87882812 -0.38445312 14.75765625 -1.09765625 14.6328125 C-4.39526921 14.06800396 -7.69729661 13.53420776 -11 13 C-12.63001953 12.71382812 -12.63001953 12.71382812 -14.29296875 12.421875 C-31.32258912 9.72792376 -48.8714849 10.5894164 -66 12 C-65.38550003 8.66177043 -64.65439171 5.97790508 -63 3 C-63.99 2.67 -64.98 2.34 -66 2 C-66.33 3.65 -66.66 5.3 -67 7 C-69.64 6.67 -72.28 6.34 -75 6 C-68.33293437 -1.7821976 -55.6453351 -5.13130617 -46 -7 C-45.2059375 -7.18304688 -44.411875 -7.36609375 -43.59375 -7.5546875 C-28.91962522 -10.07404025 -13.05728817 -6.92882367 0 0 Z " fill="#C0F0A2" transform="translate(322,191)"/>
<path d="M0 0 C24.40669993 0.01839869 24.40669993 0.01839869 31.375 2.19018555 C32.365 3.67518555 32.365 3.67518555 33.375 5.19018555 C36.44056598 5.92361983 36.44056598 5.92361983 39.375 6.19018555 C39.375 6.85018555 39.375 7.51018555 39.375 8.19018555 C40.4475 8.14893555 41.52 8.10768555 42.625 8.06518555 C46.375 8.19018555 46.375 8.19018555 48.296875 9.17456055 C52.09504612 11.03080959 56.25431921 10.77885423 60.375 10.19018555 C63.01016042 8.39827097 63.01016042 8.39827097 64.375 6.19018555 C66.355 7.18018555 66.355 7.18018555 68.375 8.19018555 C68.375 7.20018555 68.375 6.21018555 68.375 5.19018555 C70.355 5.19018555 72.335 5.19018555 74.375 5.19018555 C74.375 5.85018555 74.375 6.51018555 74.375 7.19018555 C76.025 7.19018555 77.675 7.19018555 79.375 7.19018555 C76.68658141 9.44264436 74.72858125 11.07232513 71.375 12.19018555 C71.375 13.18018555 71.375 14.17018555 71.375 15.19018555 C62.135 15.19018555 52.895 15.19018555 43.375 15.19018555 C43.375 14.53018555 43.375 13.87018555 43.375 13.19018555 C42.715 13.19018555 42.055 13.19018555 41.375 13.19018555 C41.375 12.53018555 41.375 11.87018555 41.375 11.19018555 C40.1065625 11.25206055 40.1065625 11.25206055 38.8125 11.31518555 C35.01120819 11.17695675 32.0033366 10.31622104 28.375 9.19018555 C27.02548292 8.77877937 25.67108197 8.3830885 24.3125 8.00268555 C23.70277344 7.82350586 23.09304688 7.64432617 22.46484375 7.4597168 C19.63625072 7.0949076 17.18082318 7.70476092 14.375 8.19018555 C12.08374307 8.23351901 9.79131562 8.2302961 7.5 8.19018555 C1.88530862 8.16241754 -3.70402389 8.22865998 -9.3125 8.50268555 C-11.26736328 8.58969727 -11.26736328 8.58969727 -13.26171875 8.6784668 C-16.80773444 9.21798835 -17.91536082 10.01452139 -20.625 12.19018555 C-23.1328125 12.66674805 -23.1328125 12.66674805 -25.75 12.81518555 C-29.32410419 12.98600898 -29.32410419 12.98600898 -32.625 14.19018555 C-34.52538366 14.28720928 -36.42917354 14.32094803 -38.33203125 14.32299805 C-40.0480957 14.32493164 -40.0480957 14.32493164 -41.79882812 14.3269043 C-42.99958984 14.32303711 -44.20035156 14.31916992 -45.4375 14.31518555 C-47.22124023 14.32098633 -47.22124023 14.32098633 -49.04101562 14.3269043 C-50.18892578 14.32561523 -51.33683594 14.32432617 -52.51953125 14.32299805 C-53.56987549 14.32187012 -54.62021973 14.32074219 -55.70239258 14.31958008 C-58.45202393 14.19784383 -60.94856146 13.811408 -63.625 13.19018555 C-63.58947021 14.30466064 -63.55394043 15.41913574 -63.51733398 16.56738281 C-63.38639268 20.72508822 -63.26343765 24.88299891 -63.14282227 29.04101562 C-63.08964338 30.83632829 -63.03433496 32.63157925 -62.97680664 34.42675781 C-62.89421795 37.01573383 -62.8194369 39.60483932 -62.74609375 42.1940918 C-62.71905869 42.98916641 -62.69202362 43.78424103 -62.66416931 44.60340881 C-62.54084504 49.26887311 -62.83004349 53.58907361 -63.625 58.19018555 C-63.955 58.19018555 -64.285 58.19018555 -64.625 58.19018555 C-64.625 41.69018555 -64.625 25.19018555 -64.625 8.19018555 C-63.635 7.86018555 -62.645 7.53018555 -61.625 7.19018555 C-61.625 6.53018555 -61.625 5.87018555 -61.625 5.19018555 C-57.005 3.87018555 -52.385 2.55018555 -47.625 1.19018555 C-46.965 2.18018555 -46.305 3.17018555 -45.625 4.19018555 C-45.955 4.85018555 -46.285 5.51018555 -46.625 6.19018555 C-43.33803767 6.98971692 -41.91476808 7.28677491 -38.625 6.19018555 C-37.28464364 6.01589772 -35.94000936 5.87317269 -34.59375 5.75268555 C-29.36813576 5.21064452 -24.26994377 4.23738649 -19.125 3.19018555 C-18.22007812 3.01229492 -17.31515625 2.8344043 -16.3828125 2.65112305 C-15.52429688 2.47838867 -14.66578125 2.3056543 -13.78125 2.12768555 C-13.00587891 1.97170898 -12.23050781 1.81573242 -11.43164062 1.6550293 C-7.41110056 0.6205552 -4.58187919 0.03055034 0 0 Z " fill="#34DF57" transform="translate(280.625,206.809814453125)"/>
<path d="M0 0 C0 0.66 0 1.32 0 2 C0.58160889 2.12439453 1.16321777 2.24878906 1.76245117 2.37695312 C4.0169328 3.00471495 5.76241865 3.82943021 7.80078125 4.96875 C8.52297852 5.3704541 9.24517578 5.7721582 9.98925781 6.18603516 C10.75592773 6.61964355 11.52259766 7.05325195 12.3125 7.5 C13.51084473 8.17168213 13.51084473 8.17168213 14.73339844 8.85693359 C20.40776632 12.05482428 26.01743849 15.35079719 31.57958984 18.73974609 C34.61058513 20.58345886 37.65441578 22.38115204 40.76171875 24.09375 C47.48432794 27.80222745 53.52809828 31.56208525 59 37 C58.505 37.99 58.505 37.99 58 39 C56.35 37.68 54.7 36.36 53 35 C52.01 35.99 52.01 35.99 51 37 C49.35 36.34 47.7 35.68 46 35 C46.33 33.35 46.66 31.7 47 30 C45.35 29.67 43.7 29.34 42 29 C42 28.01 42 27.02 42 26 C37.05 25.01 37.05 25.01 32 24 C32 23.34 32 22.68 32 22 C28.65670531 20.80648688 28.65670531 20.80648688 25 20 C24.01 20.66 23.02 21.32 22 22 C21.52949219 21.566875 21.05898438 21.13375 20.57421875 20.6875 C19.95160156 20.130625 19.32898438 19.57375 18.6875 19 C18.07261719 18.443125 17.45773437 17.88625 16.82421875 17.3125 C14.96868665 15.70798502 14.96868665 15.70798502 12 16 C12 15.34 12 14.68 12 14 C7.34947128 13.73067479 7.34947128 13.73067479 3 15 C3 14.34 3 13.68 3 13 C2.34 13 1.68 13 1 13 C0.87625 12.195625 0.7525 11.39125 0.625 10.5625 C0.41875 9.716875 0.2125 8.87125 0 8 C-0.66 7.67 -1.32 7.34 -2 7 C-0.35 6.67 1.3 6.34 3 6 C1.68 5.34 0.36 4.68 -1 4 C-1 3.01 -1 2.02 -1 1 C-3.60423592 0.97302863 -6.20819244 0.95317511 -8.8125 0.9375 C-9.55048828 0.92912109 -10.28847656 0.92074219 -11.04882812 0.91210938 C-14.29922068 0.89740172 -16.89404895 0.96468298 -20 2 C-25.17372667 10.25715652 -23.22030997 23.25267346 -23.31640625 32.72265625 C-23.3370099 34.43615684 -23.35800719 36.14965274 -23.37937927 37.86314392 C-23.43424803 42.34614228 -23.48381066 46.82918379 -23.53222656 51.31225586 C-23.58270063 55.89766219 -23.63825069 60.48300681 -23.69335938 65.06835938 C-23.80050962 74.04552004 -23.9020481 83.02273458 -24 92 C-25.32 91.34 -26.64 90.68 -28 90 C-27.34 90 -26.68 90 -26 90 C-26.00666183 89.00077011 -26.01332367 88.00154022 -26.02018738 86.97203064 C-26.08108302 77.54119766 -26.1260132 68.11040473 -26.15543652 58.67941952 C-26.17107202 53.83119937 -26.19227165 48.98313835 -26.22631836 44.13500977 C-26.25898725 39.45361842 -26.27686892 34.77237983 -26.28463173 30.09088326 C-26.29016173 28.30755777 -26.30096048 26.52424035 -26.31719017 24.74098015 C-26.33906473 22.2372132 -26.34196277 19.73407221 -26.34057617 17.23022461 C-26.351362 16.49798172 -26.36214783 15.76573883 -26.3732605 15.01130676 C-26.33920156 9.30312911 -25.10591599 4.77598017 -21.625 0.1875 C-14.55709078 -4.97751058 -7.28209299 -3.64104649 0 0 Z " fill="#F0EF90" transform="translate(386,123)"/>
<path d="M0 0 C1.98 0 3.96 0 6 0 C6 0.66 6 1.32 6 2 C6.99 2.495 6.99 2.495 8 3 C7.67 3.66 7.34 4.32 7 5 C7.99 4.34 8.98 3.68 10 3 C16.3665764 3.11922428 20.69840182 5.7987259 25.9375 9.0625 C27.10635742 9.77116211 27.10635742 9.77116211 28.29882812 10.49414062 C30.20588741 11.65241589 32.10568539 12.82103883 34 14 C30.06204091 15.22419163 27.83887763 14.48320272 24 13 C23.67 13.66 23.34 14.32 23 15 C22.01 14.67 21.02 14.34 20 14 C20.99 15.32 21.98 16.64 23 18 C19.65239944 20.97155693 19.65239944 20.97155693 16.77685547 21.09692383 C15.98166504 20.96825928 15.18647461 20.83959473 14.3671875 20.70703125 C13.47773438 20.57103516 12.58828125 20.43503906 11.671875 20.29492188 C10.74890625 20.13572266 9.8259375 19.97652344 8.875 19.8125 C7.97523438 19.67263672 7.07546875 19.53277344 6.1484375 19.38867188 C2.62767943 18.82970095 -0.87411409 18.26625918 -4.34448242 17.44555664 C-11.52692197 15.75995113 -18.59964337 15.72909288 -25.93188477 15.79418945 C-28.06213362 15.81249685 -30.191946 15.81469802 -32.32226562 15.81445312 C-37.97083775 15.82984994 -43.57773918 15.85517855 -49.19140625 16.54296875 C-52.35076382 16.92209166 -54.77056629 17.00034829 -57.875 16.5 C-60.92078673 16.01966087 -61.95647495 15.98549165 -65 17 C-65 16.01 -65 15.02 -65 14 C-67.64 14.33 -70.28 14.66 -73 15 C-69.20977695 10.54091406 -64.35427189 7.97001622 -58.625 7.25 C-55 7 -55 7 -54 7 C-53.34 5.68 -52.68 4.36 -52 3 C-50.68 3.66 -49.36 4.32 -48 5 C-48.474375 5.7425 -48.94875 6.485 -49.4375 7.25 C-50.79646914 9.64178568 -51.42045741 11.36673854 -52 14 C-51.1234375 13.855625 -50.246875 13.71125 -49.34375 13.5625 C-31.9673437 11.01961127 -14.31290923 10.96048569 3 14 C4.76923828 14.28617188 4.76923828 14.28617188 6.57421875 14.578125 C9.38607573 15.03533752 12.19392003 15.50880537 15 16 C15.33 14.68 15.66 13.36 16 12 C14.35 11.34 12.7 10.68 11 10 C11 9.01 11 8.02 11 7 C9.35 7 7.7 7 6 7 C6 6.01 6 5.02 6 4 C4.35 3.67 2.7 3.34 1 3 C0.505 1.515 0.505 1.515 0 0 Z " fill="#93E981" transform="translate(308,189)"/>
<path d="M0 0 C11.47504456 -1.03275401 11.47504456 -1.03275401 16.6875 2.8125 C19.21759146 4.93400526 19.92868431 5.78605294 21 9 C21.09104385 11.60124803 21.12605024 14.17511226 21.11352539 16.77612305 C21.11367142 17.56660034 21.11381744 18.35707764 21.1139679 19.17150879 C21.11327109 21.78494 21.10548955 24.39829999 21.09765625 27.01171875 C21.09579124 28.82347067 21.09436773 30.6352231 21.09336853 32.44697571 C21.08954985 37.21617016 21.07972508 41.98533418 21.06866455 46.7545166 C21.05843649 51.62084542 21.05386792 56.48717916 21.04882812 61.35351562 C21.03810226 70.90235713 21.0210336 80.45117603 21 90 C21.66 90.33 22.32 90.66 23 91 C21.02 91.99 21.02 91.99 19 93 C18.67 71.22 18.34 49.44 18 27 C17.01 28.32 16.02 29.64 15 31 C14.67 28.36 14.34 25.72 14 23 C13.34 23.66 12.68 24.32 12 25 C12.061875 24.030625 12.12375 23.06125 12.1875 22.0625 C12.21625881 17.38440054 10.64771207 13.32524418 9 9 C7.25093341 8.80398392 5.50068154 8.61852597 3.75 8.4375 C2.28820312 8.28087891 2.28820312 8.28087891 0.796875 8.12109375 C-1.7631352 8.01025532 -3.58148159 8.22261908 -6 9 C-6 8 -6 7 -6 6 C-6.33 5.34 -6.66 4.68 -7 4 C-4 2 -4 2 0 2 C0 1.34 0 0.68 0 0 Z " fill="#F3EA2E" transform="translate(196,123)"/>
<path d="M0 0 C0.86488037 -0.01305176 1.72976074 -0.02610352 2.62084961 -0.03955078 C7.05232346 -0.04560885 10.53455575 0.09495402 14.5625 2.1875 C14.5625 2.5175 14.5625 2.8475 14.5625 3.1875 C10.19308264 4.03747784 6.13385279 4.2653355 1.6875 4.1875 C-3.92719138 4.15973199 -9.51652389 4.22597443 -15.125 4.5 C-16.42824219 4.55800781 -17.73148437 4.61601562 -19.07421875 4.67578125 C-22.62023444 5.2153028 -23.72786082 6.01183584 -26.4375 8.1875 C-28.9453125 8.6640625 -28.9453125 8.6640625 -31.5625 8.8125 C-35.13660419 8.98332344 -35.13660419 8.98332344 -38.4375 10.1875 C-40.33788366 10.28452373 -42.24167354 10.31826248 -44.14453125 10.3203125 C-45.8605957 10.32224609 -45.8605957 10.32224609 -47.61132812 10.32421875 C-48.81208984 10.32035156 -50.01285156 10.31648437 -51.25 10.3125 C-53.03374023 10.31830078 -53.03374023 10.31830078 -54.85351562 10.32421875 C-56.00142578 10.32292969 -57.14933594 10.32164062 -58.33203125 10.3203125 C-59.38237549 10.31918457 -60.43271973 10.31805664 -61.51489258 10.31689453 C-64.26452393 10.19515828 -66.76106146 9.80872245 -69.4375 9.1875 C-69.40197021 10.3019751 -69.36644043 11.4164502 -69.32983398 12.56469727 C-69.19889268 16.72240267 -69.07593765 20.88031337 -68.95532227 25.03833008 C-68.90214338 26.83364275 -68.84683496 28.62889371 -68.78930664 30.42407227 C-68.70671795 33.01304828 -68.6319369 35.60215377 -68.55859375 38.19140625 C-68.53155869 38.98648087 -68.50452362 39.78155548 -68.47666931 40.60072327 C-68.35334504 45.26618757 -68.64254349 49.58638806 -69.4375 54.1875 C-69.7675 54.1875 -70.0975 54.1875 -70.4375 54.1875 C-70.4375 37.6875 -70.4375 21.1875 -70.4375 4.1875 C-62.4375 1.1875 -62.4375 1.1875 -59.4375 1.1875 C-59.1075 2.5075 -58.7775 3.8275 -58.4375 5.1875 C-55.7975 5.1875 -53.1575 5.1875 -50.4375 5.1875 C-50.4375 6.1775 -50.4375 7.1675 -50.4375 8.1875 C-46.01280717 7.31690072 -41.74609914 6.39739426 -37.5625 4.6875 C-25.78858416 0.08031554 -12.4697672 0.11014305 0 0 Z " fill="#26D657" transform="translate(286.4375,210.8125)"/>
<path d="M0 0 C0.99 0 1.98 0 3 0 C3.495 1.485 3.495 1.485 4 3 C2.39435463 5.15615236 0.81462835 7.04264807 -1 9 C-1.9590625 10.2065625 -1.9590625 10.2065625 -2.9375 11.4375 C-5 13 -5 13 -8.25 12.75 C-9.1575 12.5025 -10.065 12.255 -11 12 C-11 11.34 -11 10.68 -11 10 C-11.99 9.67 -12.98 9.34 -14 9 C-14 9.66 -14 10.32 -14 11 C-15.61974559 12.71230248 -17.2958946 14.37163262 -19 16 C-21.93433516 18.86447004 -24.63767527 21.64301223 -27 25 C-27.33 24.01 -27.66 23.02 -28 22 C-28.268125 22.763125 -28.53625 23.52625 -28.8125 24.3125 C-30 27 -30 27 -31.5625 28.3125 C-35.08329597 32.44560831 -34.16120963 40.65840201 -34.20532227 45.88476562 C-34.21522186 46.6272052 -34.22512146 47.36964478 -34.23532104 48.13458252 C-34.26659673 50.55844062 -34.29155734 52.98231824 -34.31640625 55.40625 C-34.33700519 57.0987597 -34.35800238 58.7912646 -34.37937927 60.48376465 C-34.43429659 64.91581303 -34.48383831 69.34790547 -34.53222656 73.7800293 C-34.58266461 78.31172559 -34.63823369 82.84335873 -34.69335938 87.375 C-34.80056924 96.24994591 -34.9020951 105.1249469 -35 114 C-35.33 114 -35.66 114 -36 114 C-36.09288343 102.94250152 -36.16385801 91.88509661 -36.20724869 80.82728672 C-36.2280793 75.69209018 -36.25631405 70.55716153 -36.30175781 65.42211914 C-36.34537723 60.46190208 -36.36917112 55.50194191 -36.37950897 50.54154778 C-36.38687151 48.65379737 -36.40124868 46.76606024 -36.42292023 44.87841988 C-36.64832064 24.42282069 -36.64832064 24.42282069 -30.60333252 17.37062073 C-26.78924635 13.50781134 -21.71900907 10.90897562 -17.0625 8.1875 C-16.39444336 7.78982422 -15.72638672 7.39214844 -15.03808594 6.98242188 C-10.29764609 4.31520219 -6.42929103 3.37004106 -1 3 C-0.67 2.01 -0.34 1.02 0 0 Z " fill="#F4F68A" transform="translate(165,140)"/>
<path d="M0 0 C25.2344027 0.02075198 25.2344027 0.02075198 31.375 2.19042969 C32.365 4.17042969 32.365 4.17042969 33.375 6.19042969 C30.405 5.86042969 27.435 5.53042969 24.375 5.19042969 C24.375 4.53042969 24.375 3.87042969 24.375 3.19042969 C20.07408854 3.11502259 15.77354974 3.06125009 11.47216797 3.02563477 C10.0157194 3.01075345 8.55931392 2.99044173 7.10302734 2.96411133 C-4.01656812 2.76842487 -14.72569214 3.23358346 -25.125 7.69042969 C-30.98655332 10.20252397 -38.19938804 12.19042969 -44.625 12.19042969 C-44.625 11.20042969 -44.625 10.21042969 -44.625 9.19042969 C-45.25148437 9.28582031 -45.87796875 9.38121094 -46.5234375 9.47949219 C-47.34070313 9.59035156 -48.15796875 9.70121094 -49 9.81542969 C-49.81210938 9.93144531 -50.62421875 10.04746094 -51.4609375 10.16699219 C-52.17507812 10.17472656 -52.88921875 10.18246094 -53.625 10.19042969 C-54.285 9.53042969 -54.945 8.87042969 -55.625 8.19042969 C-54.965 8.19042969 -54.305 8.19042969 -53.625 8.19042969 C-53.625 7.20042969 -53.625 6.21042969 -53.625 5.19042969 C-54.718125 5.70605469 -55.81125 6.22167969 -56.9375 6.75292969 C-60.625 8.19042969 -60.625 8.19042969 -63.625 7.19042969 C-62.965 7.19042969 -62.305 7.19042969 -61.625 7.19042969 C-61.625 6.53042969 -61.625 5.87042969 -61.625 5.19042969 C-57.005 3.87042969 -52.385 2.55042969 -47.625 1.19042969 C-46.965 2.18042969 -46.305 3.17042969 -45.625 4.19042969 C-45.955 4.85042969 -46.285 5.51042969 -46.625 6.19042969 C-43.33803767 6.98996107 -41.91476808 7.28701905 -38.625 6.19042969 C-37.28464364 6.01614186 -35.94000936 5.87341683 -34.59375 5.75292969 C-29.36813576 5.21088866 -24.26994377 4.23763063 -19.125 3.19042969 C-18.22007812 3.01253906 -17.31515625 2.83464844 -16.3828125 2.65136719 C-15.52429688 2.47863281 -14.66578125 2.30589844 -13.78125 2.12792969 C-13.00587891 1.97195312 -12.23050781 1.81597656 -11.43164062 1.65527344 C-7.41118929 0.62082218 -4.58172569 0.03088502 0 0 Z " fill="#47DF69" transform="translate(280.625,206.8095703125)"/>
<path d="M0 0 C0 0.33 0 0.66 0 1 C0.63421875 1.07734375 1.2684375 1.1546875 1.921875 1.234375 C12.52276113 3.16713324 20.75149079 8.96831163 29.74462891 14.6171875 C32.51474668 16.31560134 35.35985435 17.82913375 38.25 19.3125 C43.12177984 21.89077211 47.05181956 25.17626078 51 29 C50.67 29.66 50.34 30.32 50 31 C47.525 29.02 47.525 29.02 45 27 C44.34 27.66 43.68 28.32 43 29 C40.525 28.01 40.525 28.01 38 27 C38.33 25.35 38.66 23.7 39 22 C37.35 21.67 35.7 21.34 34 21 C34 20.01 34 19.02 34 18 C29.05 17.01 29.05 17.01 24 16 C24 15.34 24 14.68 24 14 C20.65670531 12.80648688 20.65670531 12.80648688 17 12 C16.01 12.66 15.02 13.32 14 14 C13.29423828 13.3503125 13.29423828 13.3503125 12.57421875 12.6875 C11.95160156 12.130625 11.32898438 11.57375 10.6875 11 C9.76517578 10.1646875 9.76517578 10.1646875 8.82421875 9.3125 C6.96868665 7.70798502 6.96868665 7.70798502 4 8 C4 7.34 4 6.68 4 6 C-0.65052872 5.73067479 -0.65052872 5.73067479 -5 7 C-5 6.34 -5 5.68 -5 5 C-5.66 5 -6.32 5 -7 5 C-7.12375 4.195625 -7.2475 3.39125 -7.375 2.5625 C-7.684375 1.2940625 -7.684375 1.2940625 -8 0 C-8.66 -0.33 -9.32 -0.66 -10 -1 C-5.92224809 -1.9267618 -3.57818963 -2.33958553 0 0 Z " fill="#FAEE34" transform="translate(394,131)"/>
<path d="M0 0 C0.33 0 0.66 0 1 0 C1.05389087 1.95803507 1.09274217 3.91648909 1.125 5.875 C1.14820313 6.96554688 1.17140625 8.05609375 1.1953125 9.1796875 C1 12 1 12 -1 14 C-1.33 14 -1.66 14 -2 14 C-1.855625 14.845625 -1.71125 15.69125 -1.5625 16.5625 C-2.21595252 21.6967698 -5.0317207 23.89187596 -9 27 C-16.60050251 32 -16.60050251 32 -21 32 C-21.33 31.34 -21.66 30.68 -22 30 C-21.01 30 -20.02 30 -19 30 C-18.67 29.01 -18.34 28.02 -18 27 C-17.34 27 -16.68 27 -16 27 C-15.71125 26.2575 -15.4225 25.515 -15.125 24.75 C-14 22 -14 22 -12.96484375 20.11328125 C-11.90708603 17.79649208 -11.63866363 15.96702567 -11.4375 13.4375 C-11.20957595 10.67915381 -10.88649112 8.65947335 -10 6 C-7.96875 4.90234375 -7.96875 4.90234375 -5.5 3.9375 C-2.03943188 2.77297997 -2.03943188 2.77297997 0 0 Z " fill="#A3C931" transform="translate(444,248)"/>
<path d="M0 0 C3.13737007 4.70605511 3.15804205 8.5881644 3.17700195 14.06054688 C3.18357315 14.8821228 3.19014435 15.70369873 3.19691467 16.5501709 C3.21664463 19.27303156 3.22831331 21.99583691 3.23828125 24.71875 C3.24235678 25.65106949 3.2464323 26.58338898 3.25063133 27.54396057 C3.27149676 32.48438292 3.28579306 37.4247775 3.29516602 42.36523438 C3.30619529 47.4480116 3.34055342 52.53034679 3.38033772 57.61296844 C3.40659964 61.53715784 3.41486662 65.46124378 3.41844749 69.38551331 C3.42329345 71.2576443 3.43485008 73.12977129 3.45348549 75.0018158 C3.64053479 95.04782639 3.64053479 95.04782639 -1 103 C-1.99 103.495 -1.99 103.495 -3 104 C-3.625 101.625 -3.625 101.625 -4 99 C-3.01 98.01 -3.01 98.01 -2 97 C-1.67 97.33 -1.34 97.66 -1 98 C0.1939514 87.33997948 0.12865824 76.7239881 0.09765625 66.015625 C0.09578749 64.10463498 0.09436575 62.19364448 0.09336853 60.28265381 C0.08957941 55.29165283 0.07978056 50.3006817 0.06866455 45.30969238 C0.05837227 40.20125736 0.05385428 35.09281744 0.04882812 29.984375 C0.03815451 19.98957034 0.02112222 9.99478767 0 0 Z " fill="#DBE17A" transform="translate(445,162)"/>
<path d="M0 0 C0.9075 0.61875 1.815 1.2375 2.75 1.875 C2.75 2.205 2.75 2.535 2.75 2.875 C1.1 2.875 -0.55 2.875 -2.25 2.875 C-2.25 2.215 -2.25 1.555 -2.25 0.875 C-3.57 1.205 -4.89 1.535 -6.25 1.875 C-6.53875 3.009375 -6.8275 4.14375 -7.125 5.3125 C-7.49625 6.488125 -7.8675 7.66375 -8.25 8.875 C-11.9811703 10.74058515 -16.42481315 10.46399088 -20.33203125 9.203125 C-21.99717749 8.48416165 -23.62774964 7.68612518 -25.25 6.875 C-25.25 6.215 -25.25 5.555 -25.25 4.875 C-26.013125 4.75125 -26.77625 4.6275 -27.5625 4.5 C-30.25 3.875 -30.25 3.875 -33.25 1.875 C-31.87714844 2.01808594 -31.87714844 2.01808594 -30.4765625 2.1640625 C-29.28804688 2.27492187 -28.09953125 2.38578125 -26.875 2.5 C-25.69164062 2.61601562 -24.50828125 2.73203125 -23.2890625 2.8515625 C-21.78472656 2.86316406 -21.78472656 2.86316406 -20.25 2.875 C-19.59 2.215 -18.93 1.555 -18.25 0.875 C-18.91 -0.445 -19.57 -1.765 -20.25 -3.125 C-13.79835468 -5.26528329 -5.76921844 -3.31523595 0 0 Z " fill="#73E67F" transform="translate(348.25,206.125)"/>
<path d="M0 0 C-0.33 0.99 -0.66 1.98 -1 3 C-0.01 2.34 0.98 1.68 2 1 C4.9609375 1.05859375 4.9609375 1.05859375 8.375 1.4375 C12.5789683 1.89655401 15.88748825 1.94117184 20 1 C21.43628457 0.93733488 22.8750555 0.91313653 24.3125 0.9375 C26.1378125 0.9684375 26.1378125 0.9684375 28 1 C19.30528036 5.88124612 7.75609728 7.45849606 -2 9 C-2 8.01 -2 7.02 -2 6 C-4.31 6.66 -6.62 7.32 -9 8 C-9.66 7.34 -10.32 6.68 -11 6 C-11.9075 6.350625 -12.815 6.70125 -13.75 7.0625 C-17.00591313 8.00170571 -17.92749994 7.95514676 -21 7 C-6.19001548 -2.47600619 -6.19001548 -2.47600619 0 0 Z " fill="#78E77F" transform="translate(244,203)"/>
<path d="M0 0 C1.32 0 2.64 0 4 0 C4.0744013 4.32328804 4.12871968 8.64623255 4.16479492 12.9699707 C4.17984066 14.43943782 4.20028238 15.90886034 4.22631836 17.37817383 C4.26288955 19.4957177 4.27976801 21.61266565 4.29296875 23.73046875 C4.3086792 25.00301514 4.32438965 26.27556152 4.34057617 27.58666992 C3.84522107 32.55122878 2.13321515 35.00498182 -1.5625 38.25 C-5.96998293 41.41434672 -9.65525996 41.79812393 -15 41 C-17.7342966 39.63850107 -18.89961363 38.36293467 -21 36 C-21.875 33.1875 -21.875 33.1875 -22 31 C-20.32700041 31.65061095 -18.66140763 32.32033324 -17 33 C-15.9171875 33.433125 -15.9171875 33.433125 -14.8125 33.875 C-12.57979713 35.26081558 -11.96213823 36.59465442 -11 39 C-7.535 38.505 -7.535 38.505 -4 38 C-4.33 36.02 -4.66 34.04 -5 32 C-3.68 32 -2.36 32 -1 32 C-1 30.35 -1 28.7 -1 27 C-0.34 27 0.32 27 1 27 C1.33 19.74 1.66 12.48 2 5 C1.01 5 0.02 5 -1 5 C-0.67 3.35 -0.34 1.7 0 0 Z " fill="#0D435B" transform="translate(357,265)"/>
<path d="M0 0 C-3.65188082 1.07174763 -6.26432828 0.76411467 -10 0 C-10 0.66 -10 1.32 -10 2 C-7.525 2.495 -7.525 2.495 -5 3 C-5.33 3.99 -5.66 4.98 -6 6 C-7.9375 5.625 -7.9375 5.625 -10 5 C-10.495 4.01 -10.495 4.01 -11 3 C-14.59882006 1.80039331 -17.58137982 1.83113271 -21.375 1.8125 C-22.68210937 1.79832031 -23.98921875 1.78414062 -25.3359375 1.76953125 C-28.81967939 1.98865787 -30.83228128 2.70434693 -34 4 C-37.12109375 4.16015625 -37.12109375 4.16015625 -40.4375 4.0625 C-44.78683638 3.94439523 -48.72420147 4.1680573 -53 5 C-39.84570233 -7.0104457 -15.56013 -4.02789189 0 0 Z " fill="#DCF2A8" transform="translate(310,186)"/>
<path d="M0 0 C2.46747621 3.70121431 2.26825955 6.4972506 2.22705078 10.77612305 C2.22734283 11.56660034 2.22763489 12.35707764 2.22793579 13.17150879 C2.22654214 15.78502366 2.21097938 18.39825366 2.1953125 21.01171875 C2.19158249 22.82346948 2.18873546 24.63522224 2.18673706 26.44697571 C2.17909964 31.21621263 2.1594502 35.9853278 2.1373291 40.7545166 C2.11687303 45.62083285 2.10773585 50.48716877 2.09765625 55.35351562 C2.07620442 64.90239725 2.04206714 74.4511885 2 84 C2.66 84.33 3.32 84.66 4 85 C2.02 85.99 2.02 85.99 0 87 C0 58.29 0 29.58 0 0 Z " fill="#EFEF8C" transform="translate(215,129)"/>
<path d="M0 0 C0.33 0 0.66 0 1 0 C1 27.06 1 54.12 1 82 C-0.32 81.34 -1.64 80.68 -3 80 C-3 78.02 -3 76.04 -3 74 C-1.515 73.505 -1.515 73.505 0 73 C-0.2165625 72.05253906 -0.2165625 72.05253906 -0.4375 71.0859375 C-2.31705828 62.02751079 -2.64935521 53.05253659 -1.50927734 43.8659668 C-0.96952811 39.10437322 -0.78280765 34.37838671 -0.68359375 29.58984375 C-0.6524221 28.31047691 -0.6524221 28.31047691 -0.62062073 27.00526428 C-0.55592801 24.31608089 -0.496619 21.6268111 -0.4375 18.9375 C-0.39423816 17.09960091 -0.35062161 15.26171014 -0.30664062 13.42382812 C-0.20033066 8.94930429 -0.09884438 4.47469473 0 0 Z " fill="#D1D722" transform="translate(445,166)"/>
<path d="M0 0 C0.33 0.66 0.66 1.32 1 2 C2.051875 1.95875 3.10375 1.9175 4.1875 1.875 C7.79735482 1.9933559 9.89397921 2.22513098 13 4 C14.96266333 7.03620065 15.15480752 8.91418619 14.5625 12.4375 C14.14275046 15.30971877 13.99917062 16.99618483 14.625 19.875 C14.74875 20.57625 14.8725 21.2775 15 22 C13.5625 23.8125 13.5625 23.8125 12 25 C12.061875 24.030625 12.12375 23.06125 12.1875 22.0625 C12.21625881 17.38440054 10.64771207 13.32524418 9 9 C7.25093341 8.80398392 5.50068154 8.61852597 3.75 8.4375 C2.28820312 8.28087891 2.28820312 8.28087891 0.796875 8.12109375 C-1.7631352 8.01025532 -3.58148159 8.22261908 -6 9 C-6 8 -6 7 -6 6 C-6.33 5.34 -6.66 4.68 -7 4 C-4 2 -4 2 0 2 C0 1.34 0 0.68 0 0 Z " fill="#F8EF2C" transform="translate(196,123)"/>
<path d="M0 0 C1.98 0 3.96 0 6 0 C6 0.66 6 1.32 6 2 C7.65 2 9.3 2 11 2 C8.31158141 4.25245881 6.35358125 5.88213958 3 7 C3 7.99 3 8.98 3 10 C-6.24 10 -15.48 10 -25 10 C-25 9.34 -25 8.68 -25 8 C-25.66 8 -26.32 8 -27 8 C-27 7.34 -27 6.68 -27 6 C-28.3303125 6.061875 -28.3303125 6.061875 -29.6875 6.125 C-32.97277013 6.00102754 -35.05449295 5.38612096 -38 4 C-38 3.67 -38 3.34 -38 3 C-31.69203097 2.64955728 -25.78634905 3.25909782 -20 6 C-19.67 6.99 -19.34 7.98 -19 9 C-16.56077639 8.91299202 -14.12521586 8.80613998 -11.6875 8.6875 C-10.65206055 8.65366211 -10.65206055 8.65366211 -9.59570312 8.61914062 C-5.54757542 8.44765943 -5.54757542 8.44765943 -2.14453125 6.45703125 C-1.76683594 5.97621094 -1.38914062 5.49539062 -1 5 C-0.34 5 0.32 5 1 5 C0.505 2.525 0.505 2.525 0 0 Z " fill="#1BDE62" transform="translate(349,212)"/>
<path d="M0 0 C0.33 1.32 0.66 2.64 1 4 C1.66 4 2.32 4 3 4 C3.33 5.65 3.66 7.3 4 9 C4.91523438 8.97679687 5.83046875 8.95359375 6.7734375 8.9296875 C7.96195312 8.91164063 9.15046875 8.89359375 10.375 8.875 C11.55835938 8.85179687 12.74171875 8.82859375 13.9609375 8.8046875 C17 9 17 9 19 11 C20 14 20 14 19.0625 16.1875 C18.5365625 17.0846875 18.5365625 17.0846875 18 18 C15.35788276 18.46237052 13.58056916 18.34883074 11.26171875 16.95556641 C9.28954848 15.46242591 7.38982003 13.90855592 5.5 12.3125 C4.84902344 11.78205078 4.19804687 11.25160156 3.52734375 10.70507812 C-0.18735043 7.6470218 -3.6598471 4.46219695 -7 1 C-4 0 -4 0 0 0 Z " fill="#0E4E67" transform="translate(316,280)"/>
<path d="M0 0 C1.32 0.33 2.64 0.66 4 1 C4 1.66 4 2.32 4 3 C5.5778125 2.9071875 5.5778125 2.9071875 7.1875 2.8125 C11.16108064 3.007922 12.91244563 3.5673814 16 6 C16 6.66 16 7.32 16 8 C15.01 8 14.02 8 13 8 C13 7.34 13 6.68 13 6 C11.35 6.33 9.7 6.66 8 7 C7.67 8.32 7.34 9.64 7 11 C5.68 10.01 4.36 9.02 3 8 C2.54625 8.66 2.0925 9.32 1.625 10 C-1.85845969 12.65406452 -4.29597552 12.40097598 -8.5625 12.3359375 C-11.1229409 11.98305622 -12.73403867 11.19745924 -15 10 C-17.32495277 9.61250787 -19.65851268 9.27017161 -22 9 C-22 8.34 -22 7.68 -22 7 C-14.25 7.875 -14.25 7.875 -12 9 C-10.29297265 9.06996014 -8.58331997 9.08440154 -6.875 9.0625 C-5.96492188 9.05347656 -5.05484375 9.04445312 -4.1171875 9.03515625 C-3.41851562 9.02355469 -2.71984375 9.01195312 -2 9 C-2.04125 8.071875 -2.0825 7.14375 -2.125 6.1875 C-2 3 -2 3 0 0 Z " fill="#52E16D" transform="translate(342,206)"/>
<path d="M0 0 C0 0.66 0 1.32 0 2 C-0.60585938 1.86722656 -1.21171875 1.73445312 -1.8359375 1.59765625 C-2.67382812 1.42105469 -3.51171875 1.24445313 -4.375 1.0625 C-5.18710937 0.88847656 -5.99921875 0.71445313 -6.8359375 0.53515625 C-16.09783105 -1.03136155 -25.24678962 -1.12527896 -34.625 -1.0625 C-36.56052734 -1.05573242 -36.56052734 -1.05573242 -38.53515625 -1.04882812 C-41.69015375 -1.03714295 -44.84505137 -1.02076044 -48 -1 C-47.67 -1.99 -47.34 -2.98 -47 -4 C-33.64995796 -9.22286146 -12.80473725 -5.29692368 0 0 Z " fill="#AEED95" transform="translate(316,203)"/>
<path d="M0 0 C5.61 0 11.22 0 17 0 C10.6611837 6.3388163 2.83026916 8.06696677 -5.875 8.3125 C-12.12192559 8.20944158 -19.39861834 7.60138166 -24 3 C-19.49916428 1.40292926 -16.54976219 2.6724618 -12.28125 4.23046875 C-8.2455902 5.5918129 -4.23705902 6 0 6 C0 4.02 0 2.04 0 0 Z " fill="#76B720" transform="translate(220,305)"/>
<path d="M0 0 C0.99 1.32 1.98 2.64 3 4 C-0.84934629 8.01126907 -4.95158716 11.49522186 -9.3125 14.9375 C-10.30455444 15.72592285 -10.30455444 15.72592285 -11.31665039 16.53027344 C-15.8207068 20.09900388 -20.36869963 23.59741197 -25 27 C-27 26 -27 26 -28 23 C-27.34 22.67 -26.68 22.34 -26 22 C-25.34 22.33 -24.68 22.66 -24 23 C-23.67 22.01 -23.34 21.02 -23 20 C-21.1875 18.9375 -21.1875 18.9375 -19 18 C-18.2575 17.62875 -17.515 17.2575 -16.75 16.875 C-15.88375 16.441875 -15.88375 16.441875 -15 16 C-15 15.34 -15 14.68 -15 14 C-13.125 12.9375 -13.125 12.9375 -11 12 C-10.34 12.33 -9.68 12.66 -9 13 C-9 12.01 -9 11.02 -9 10 C-8.34 10 -7.68 10 -7 10 C-7 8.35 -7 6.7 -7 5 C-4.525 5.495 -4.525 5.495 -2 6 C-1.34 4.02 -0.68 2.04 0 0 Z " fill="#5C869D" transform="translate(265,277)"/>
<path d="M0 0 C0.33 0 0.66 0 1 0 C1.05389087 1.95803507 1.09274217 3.91648909 1.125 5.875 C1.14820313 6.96554688 1.17140625 8.05609375 1.1953125 9.1796875 C1 12 1 12 -1 14 C-3.125 13.625 -3.125 13.625 -5 13 C-6.65 14.98 -8.3 16.96 -10 19 C-10.66 18.67 -11.32 18.34 -12 18 C-11.85831863 16.56208484 -11.71148957 15.1246763 -11.5625 13.6875 C-11.48128906 12.88699219 -11.40007812 12.08648437 -11.31640625 11.26171875 C-11 9 -11 9 -10 6 C-7.96875 4.90234375 -7.96875 4.90234375 -5.5 3.9375 C-2.03943188 2.77297997 -2.03943188 2.77297997 0 0 Z " fill="#A9CC26" transform="translate(444,248)"/>
<path d="M0 0 C3.79842028 1.40886861 7.15096195 3.17119556 10.625 5.25 C14.61496842 7.62241366 18.62888788 9.86482771 22.75 12 C27.79733699 14.71047125 31.89529436 18.02466904 36 22 C35.67 22.66 35.34 23.32 35 24 C33.35 22.68 31.7 21.36 30 20 C29.34 20.66 28.68 21.32 28 22 C26.35 21.34 24.7 20.68 23 20 C23.33 18.35 23.66 16.7 24 15 C21.525 14.505 21.525 14.505 19 14 C19 13.01 19 12.02 19 11 C15.7 10.34 12.4 9.68 9 9 C9 8.34 9 7.68 9 7 C7.02 6.34 5.04 5.68 3 5 C3 4.34 3 3.68 3 3 C2.34 3 1.68 3 1 3 C0.67 2.01 0.34 1.02 0 0 Z " fill="#F3EC79" transform="translate(409,138)"/>
<path d="M0 0 C1.98 0 3.96 0 6 0 C6 0.66 6 1.32 6 2 C7.0725 1.95875 8.145 1.9175 9.25 1.875 C13 2 13 2 14.921875 2.984375 C18.72004612 4.84062404 22.87931921 4.58866868 27 4 C29.63516042 2.20808542 29.63516042 2.20808542 31 0 C32.32 1.32 33.64 2.64 35 4 C33.484375 5.984375 33.484375 5.984375 31 8 C28.26317029 8.2911521 25.96059961 8.38322418 23.25 8.25 C22.55261719 8.23195312 21.85523438 8.21390625 21.13671875 8.1953125 C19.42388461 8.14838554 17.71176176 8.07664605 16 8 C15.67 7.34 15.34 6.68 15 6 C12.82464268 5.15879612 12.82464268 5.15879612 10.25 4.5 C6.73525254 3.5080154 3.35738818 2.45486821 0 1 C0 0.67 0 0.34 0 0 Z " fill="#35E06C" transform="translate(314,213)"/>
<path d="M0 0 C1.47666138 0.00447144 1.47666138 0.00447144 2.9831543 0.0090332 C4.0762793 0.00806641 5.1694043 0.00709961 6.2956543 0.00610352 C7.45452148 0.02382812 8.61338867 0.04155273 9.80737305 0.05981445 C11.56694336 0.0767334 11.56694336 0.0767334 13.36206055 0.09399414 C31.87356579 0.38611922 31.87356579 0.38611922 37.49487305 2.37231445 C38.15487305 3.69231445 38.81487305 5.01231445 39.49487305 6.37231445 C36.52487305 6.04231445 33.55487305 5.71231445 30.49487305 5.37231445 C30.49487305 4.71231445 30.49487305 4.05231445 30.49487305 3.37231445 C18.61487305 3.37231445 6.73487305 3.37231445 -5.50512695 3.37231445 C-2.50512695 0.37231445 -2.50512695 0.37231445 0 0 Z " fill="#48E25C" transform="translate(274.505126953125,206.627685546875)"/>
<path d="M0 0 C1.98 0 3.96 0 6 0 C6 0.66 6 1.32 6 2 C6.66 2.33 7.32 2.66 8 3 C7.67 3.66 7.34 4.32 7 5 C7.99 4.34 8.98 3.68 10 3 C15.72534569 3.2202056 19.28216236 5.01524558 24 8 C22.02 8.99 22.02 8.99 20 10 C20 9.34 20 8.68 20 8 C19.01 8 18.02 8 17 8 C17.66 9.65 18.32 11.3 19 13 C18.4225 12.690625 17.845 12.38125 17.25 12.0625 C15.15705816 11.07416636 13.25464725 10.4831387 11 10 C11 9.01 11 8.02 11 7 C9.35 7 7.7 7 6 7 C6 6.01 6 5.02 6 4 C4.35 3.67 2.7 3.34 1 3 C0.67 2.01 0.34 1.02 0 0 Z " fill="#ACE97C" transform="translate(308,189)"/>
<path d="M0 0 C0.33 0 0.66 0 1 0 C1.33 2.64 1.66 5.28 2 8 C3.65 8.33 5.3 8.66 7 9 C7 10.65 7 12.3 7 14 C9.16924452 15.32006573 9.16924452 15.32006573 12 16 C15.28441679 14.73361924 15.28441679 14.73361924 18 13 C17.01 12.01 16.02 11.02 15 10 C16.98 10 18.96 10 21 10 C22.125 14.75 22.125 14.75 21 17 C16.93220306 18.35593231 13.25331741 18.53075585 9 18 C5.02788871 15.94038674 2.34188564 13.80132162 0 10 C-0.29296875 7.421875 -0.29296875 7.421875 -0.1875 4.75 C-0.16042969 3.85796875 -0.13335937 2.9659375 -0.10546875 2.046875 C-0.07066406 1.37140625 -0.03585938 0.6959375 0 0 Z " fill="#18526E" transform="translate(217,288)"/>
<path d="M0 0 C0 1.32 0 2.64 0 4 C-0.66 4 -1.32 4 -2 4 C-2 4.66 -2 5.32 -2 6 C-4.31 6.66 -6.62 7.32 -9 8 C-9.66 7.34 -10.32 6.68 -11 6 C-11.9075 6.350625 -12.815 6.70125 -13.75 7.0625 C-17.00591313 8.00170571 -17.92749994 7.95514676 -21 7 C-6.19001548 -2.47600619 -6.19001548 -2.47600619 0 0 Z " fill="#6BE46D" transform="translate(244,203)"/>
<path d="M0 0 C1.8871875 0.0309375 1.8871875 0.0309375 3.8125 0.0625 C4.1425 1.0525 4.4725 2.0425 4.8125 3.0625 C3.53375 3.145 2.255 3.2275 0.9375 3.3125 C-1.25388909 3.52393253 -1.25388909 3.52393253 -3.1875 4.0625 C-4.41277948 6.01271083 -4.41277948 6.01271083 -5.1875 8.0625 C-9.27708854 9.58149003 -12.97111603 8.80656776 -17.1875 8.0625 C-11.86177291 3.6497547 -7.14001906 -0.11704949 0 0 Z " fill="#F6F143" transform="translate(187.1875,151.9375)"/>
<path d="M0 0 C3.46941546 0.45822468 6.67395049 0.89131683 10 2 C10.33 2.99 10.66 3.98 11 5 C11.66 5.165 12.32 5.33 13 5.5 C13.66 5.665 14.32 5.83 15 6 C15.33 6.99 15.66 7.98 16 9 C14.8125 11.1875 14.8125 11.1875 13 13 C11.68 13 10.36 13 9 13 C9 11.68 9 10.36 9 9 C8.01 9 7.02 9 6 9 C5.938125 8.071875 5.938125 8.071875 5.875 7.125 C5.58625 6.42375 5.2975 5.7225 5 5 C2.00384054 3.6954344 2.00384054 3.6954344 -1 3 C-0.67 2.01 -0.34 1.02 0 0 Z " fill="#F3E62D" transform="translate(418,147)"/>
<path d="M0 0 C0 15.18 0 30.36 0 46 C-0.33 46 -0.66 46 -1 46 C-1.02505615 44.854104 -1.0501123 43.70820801 -1.07592773 42.52758789 C-1.16983106 38.29146402 -1.27009275 34.05551072 -1.37231445 29.81958008 C-1.4157282 27.98335753 -1.45739839 26.14709292 -1.49731445 24.31079102 C-1.55486169 21.67711689 -1.61859998 19.04365579 -1.68359375 16.41015625 C-1.70030624 15.58411392 -1.71701874 14.75807159 -1.73423767 13.90699768 C-1.47807433 10.14523247 -1.47807433 10.14523247 -3 7 C-4.66617115 6.95936168 -6.33388095 6.957279 -8 7 C-8 4 -8 4 -6.25 1.8125 C-4 0 -4 0 0 0 Z " fill="#10D34D" transform="translate(360,215)"/>
<path d="M0 0 C1.32 0 2.64 0 4 0 C4.04945386 4.35992871 4.08574488 8.71970862 4.10986328 13.07983398 C4.11991821 14.56293583 4.13356404 16.04601788 4.15087891 17.52905273 C4.17515006 19.66134531 4.18648799 21.79337569 4.1953125 23.92578125 C4.20578613 25.20880127 4.21625977 26.49182129 4.22705078 27.8137207 C4 31 4 31 2 34 C2 24.43 2 14.86 2 5 C1.01 5 0.02 5 -1 5 C-0.67 3.35 -0.34 1.7 0 0 Z " fill="#0F5C44" transform="translate(357,265)"/>
<path d="M0 0 C-1 3 -1 3 -2.9375 4.1875 C-5 5 -5 5 -7 5 C-8.66965451 5.31802943 -10.33678518 5.64984951 -12 6 C-12 5.01 -12 4.02 -12 3 C-12.66 3 -13.32 3 -14 3 C-14.33 4.65 -14.66 6.3 -15 8 C-17.64 7.67 -20.28 7.34 -23 7 C-16.75454788 0.09713187 -8.85465187 -1.84471914 0 0 Z " fill="#C0ED87" transform="translate(270,190)"/>
<path d="M0 0 C2.26068049 1.41949705 3.96112058 2.67339068 5.6875 4.6875 C5.3575 5.3475 5.0275 6.0075 4.6875 6.6875 C3.945 6.048125 3.2025 5.40875 2.4375 4.75 C-2.23030563 1.55920533 -7.83938507 1.86462346 -13.3125 1.6875 C-13.3125 2.3475 -13.3125 3.0075 -13.3125 3.6875 C-17.74326923 5.77980769 -17.74326923 5.77980769 -20.625 5.3125 C-21.181875 5.10625 -21.73875 4.9 -22.3125 4.6875 C-20.9925 4.3575 -19.6725 4.0275 -18.3125 3.6875 C-18.3125 3.0275 -18.3125 2.3675 -18.3125 1.6875 C-11.92748486 -1.50500757 -6.93993684 -2.74978629 0 0 Z " fill="#F5F174" transform="translate(209.3125,121.3125)"/>
<path d="M0 0 C2.4375 0.375 2.4375 0.375 5 1 C5.33 1.66 5.66 2.32 6 3 C6.99 3.33 7.98 3.66 9 4 C12 5 12 5 13 7 C14.97888961 7.72693904 16.97954558 8.39816251 19 9 C19 9.66 19 10.32 19 11 C19.66 10.67 20.32 10.34 21 10 C21.33 9.01 21.66 8.02 22 7 C22.33 7 22.66 7 23 7 C23.33 9.97 23.66 12.94 24 16 C17.669771 12.76511344 11.65479762 9.22868525 5.8125 5.1875 C5.23604736 4.79054932 4.65959473 4.39359863 4.06567383 3.98461914 C2.68963495 3.01873968 1.3416188 2.01314615 0 1 C0 0.67 0 0.34 0 0 Z " fill="#11C06B" transform="translate(336,248)"/>
<path d="M0 0 C-1.98 0.33 -3.96 0.66 -6 1 C-6 1.66 -6 2.32 -6 3 C-10.88278556 4.34697533 -14.90773029 5.12124452 -20 5 C-20.99 5.495 -20.99 5.495 -22 6 C-23.67654729 5.72057545 -25.34608154 5.39171753 -27 5 C-26.67 4.01 -26.34 3.02 -26 2 C-23.10441559 0.5522078 -21.25811062 0 -18 0 C-18 0.99 -18 1.98 -18 3 C-16.42798828 2.54947266 -16.42798828 2.54947266 -14.82421875 2.08984375 C-13.44543621 1.70528535 -12.06652303 1.32119511 -10.6875 0.9375 C-9.65206055 0.63875977 -9.65206055 0.63875977 -8.59570312 0.33398438 C-3.33984375 -1.11328125 -3.33984375 -1.11328125 0 0 Z " fill="#59E276" transform="translate(260,209)"/>
<path d="M0 0 C10.24656458 -0.38747513 19.03143819 0.41954024 29 3 C25.34811918 4.07174763 22.73567172 3.76411467 19 3 C19 3.66 19 4.32 19 5 C21.475 5.495 21.475 5.495 24 6 C23.67 6.99 23.34 7.98 23 9 C21.0625 8.625 21.0625 8.625 19 8 C18.67 7.34 18.34 6.68 18 6 C17.01 5.67 16.02 5.34 15 5 C14.01 4.67 13.02 4.34 12 4 C11.67 3.34 11.34 2.68 11 2 C8.41394668 1.5316735 8.41394668 1.5316735 5.4375 1.375 C3.91962891 1.26285156 3.91962891 1.26285156 2.37109375 1.1484375 C1.19740234 1.07496094 1.19740234 1.07496094 0 1 C0 0.67 0 0.34 0 0 Z " fill="#DEF4AC" transform="translate(281,183)"/>
<path d="M0 0 C5.445 1.485 5.445 1.485 11 3 C11 3.66 11 4.32 11 5 C13.31 5 15.62 5 18 5 C18 5.66 18 6.32 18 7 C23.28 7 28.56 7 34 7 C26.27883313 10.86058343 17.56211887 9.44046427 9.4921875 6.99609375 C5.77495292 5.51036519 3.0549537 3.57973868 0 1 C0 0.67 0 0.34 0 0 Z " fill="#ABD074" transform="translate(339,304)"/>
<path d="M0 0 C2.25 0.25 2.25 0.25 4 1 C4 2.98 4 4.96 4 7 C-0.2382509 9.11912545 -5.11812346 8.25196473 -9.5 7 C-10.7375 6.505 -10.7375 6.505 -12 6 C-12 5.67 -12 5.34 -12 5 C-10.7625 4.9175 -9.525 4.835 -8.25 4.75 C-4.18979468 4.27821558 -2.78952038 2.98877184 0 0 Z " fill="#5AE47A" transform="translate(336,208)"/>
<path d="M0 0 C0.33 0 0.66 0 1 0 C1.02505615 0.60996826 1.0501123 1.21993652 1.07592773 1.84838867 C1.1924058 4.62827898 1.31489632 7.4078734 1.4375 10.1875 C1.47681641 11.14720703 1.51613281 12.10691406 1.55664062 13.09570312 C1.59853516 14.02705078 1.64042969 14.95839844 1.68359375 15.91796875 C1.72025146 16.77156982 1.75690918 17.6251709 1.79467773 18.50463867 C2.07239253 21.87981453 2.47780553 24.95561107 4 28 C5.65391846 28.39171753 7.32345271 28.72057545 9 29 C12 30 12 30 13.1875 32.0625 C13.455625 32.701875 13.72375 33.34125 14 34 C11.5 33.3125 11.5 33.3125 8 32 C7.31550781 31.75701172 6.63101562 31.51402344 5.92578125 31.26367188 C3.40834861 30.09336816 1.83931302 29.09945807 0 27 C-1.01806402 22.37219159 -0.75340592 17.89743888 -0.5 13.1875 C-0.46390625 11.92228516 -0.4278125 10.65707031 -0.390625 9.35351562 C-0.29640876 6.23260256 -0.16498197 3.11784192 0 0 Z " fill="#C1CD0E" transform="translate(362,189)"/>
<path d="M0 0 C0.33 0 0.66 0 1 0 C1 13.2 1 26.4 1 40 C-0.32 39.34 -1.64 38.68 -3 38 C-3 36.02 -3 34.04 -3 32 C-2.01 31.67 -1.02 31.34 0 31 C0 20.77 0 10.54 0 0 Z " fill="#C3D421" transform="translate(445,208)"/>
<path d="M0 0 C2.64 0 5.28 0 8 0 C8 0.99 8 1.98 8 3 C8.66 2.67 9.32 2.34 10 2 C12.3329866 1.95977609 14.66706666 1.95679753 17 2 C16.67 2.99 16.34 3.98 16 5 C13.87506859 5.02693575 11.75004088 5.04636628 9.625 5.0625 C8.44164062 5.07410156 7.25828125 5.08570313 6.0390625 5.09765625 C3 5 3 5 1 4 C0.375 1.9375 0.375 1.9375 0 0 Z " fill="#26DD6A" transform="translate(228,216)"/>
<path d="M0 0 C-1.89187467 1.29745791 -3.78867344 2.5877376 -5.6875 3.875 C-6.74324219 4.59429687 -7.79898437 5.31359375 -8.88671875 6.0546875 C-11.56978706 7.73118438 -14.02840192 8.95249789 -17 10 C-17 6 -17 6 -15.9375 4.3125 C-13.11403699 2.39983151 -10.34393575 2.31546564 -7 2 C-7 1.34 -7 0.68 -7 0 C-3.86650268 -1.04449911 -3.01031744 -0.93423645 0 0 Z " fill="#90BF42" transform="translate(412,289)"/>
<path d="M0 0 C0 0.66 0 1.32 0 2 C0.99 2.33 1.98 2.66 3 3 C1.71475739 3.86380259 0.42157581 4.71580369 -0.875 5.5625 C-1.59429687 6.03816406 -2.31359375 6.51382812 -3.0546875 7.00390625 C-3.69664062 7.33261719 -4.33859375 7.66132813 -5 8 C-5.66 7.67 -6.32 7.34 -7 7 C-6.67 6.34 -6.34 5.68 -6 5 C-7.32 4.67 -8.64 4.34 -10 4 C-10 3.01 -10 2.02 -10 1 C-6.56484998 0.37542727 -3.50935186 0 0 0 Z " fill="#9BC819" transform="translate(419,280)"/>
<path d="M0 0 C7.88257767 0.27087896 15.00371706 1.11317614 22 5 C22.33 5.66 22.66 6.32 23 7 C22.236875 6.979375 21.47375 6.95875 20.6875 6.9375 C17.89814214 6.87057159 17.89814214 6.87057159 15 8 C14.67 6.35 14.34 4.7 14 3 C13.40832031 3.09539062 12.81664062 3.19078125 12.20703125 3.2890625 C7.55619775 3.94154485 4.27685626 4.34537279 0 2 C0 1.34 0 0.68 0 0 Z " fill="#CCEB86" transform="translate(300,186)"/>
<path d="M0 0 C7.20250197 0.8988344 12.95225461 1.87653724 19 6 C19 6.33 19 6.66 19 7 C17.35 7 15.7 7 14 7 C14 6.34 14 5.68 14 5 C11.61435923 5.57584432 9.33317216 6.22227595 7 7 C6.01 6.67 5.02 6.34 4 6 C3.67 5.01 3.34 4.02 3 3 C2.01 2.67 1.02 2.34 0 2 C0 1.34 0 0.68 0 0 Z " fill="#67E261" transform="translate(332,202)"/>
<path d="M0 0 C2.475 0.495 2.475 0.495 5 1 C5 1.66 5 2.32 5 3 C5.88316895 3.19033813 5.88316895 3.19033813 6.78417969 3.38452148 C10.23913366 4.34418863 13.18051444 6.25636978 16.25 8.0625 C16.8996875 8.43955078 17.549375 8.81660156 18.21875 9.20507812 C19.81505091 10.13234115 21.40787529 11.06558456 23 12 C20.36749612 13.31625194 19.19820944 12.74813658 16.375 12.0625 C15.55773437 11.86785156 14.74046875 11.67320312 13.8984375 11.47265625 C13.27195312 11.31667969 12.64546875 11.16070312 12 11 C12 10.34 12 9.68 12 9 C9.36 7.68 6.72 6.36 4 5 C4 4.01 4 3.02 4 2 C2.68 1.67 1.36 1.34 0 1 C0 0.67 0 0.34 0 0 Z " fill="#F8F17F" transform="translate(381,122)"/>
<path d="M0 0 C-4.35434208 3.66497731 -9.02620854 6.69287168 -13.8125 9.75 C-14.60076172 10.25660156 -15.38902344 10.76320313 -16.20117188 11.28515625 C-18.13254374 12.52591636 -20.06550511 13.76411699 -22 15 C-22.33 14.01 -22.66 13.02 -23 12 C-16.375 8.125 -16.375 8.125 -13 7 C-11.22519265 5.37952373 -9.72248193 3.66506439 -8.1875 1.8125 C-5.34522901 -0.54252454 -3.59204459 -0.32654951 0 0 Z " fill="#11BB7E" transform="translate(240,249)"/>
<path d="M0 0 C-1.63450292 6.66374269 -1.63450292 6.66374269 -3.5625 8.4375 C-6.02273164 11.11166483 -5.71034196 14.46617189 -6 18 C-6.33 18 -6.66 18 -7 18 C-7.02701408 15.89590361 -7.04640223 13.79170822 -7.0625 11.6875 C-7.07410156 10.51574219 -7.08570313 9.34398437 -7.09765625 8.13671875 C-7 5 -7 5 -6 2 C-3 0 -3 0 0 0 Z " fill="#E9E738" transform="translate(137,160)"/>
<path d="M0 0 C0.99 0 1.98 0 3 0 C2.67 0.99 2.34 1.98 2 3 C-0.31 3.33 -2.62 3.66 -5 4 C-5 4.66 -5 5.32 -5 6 C-7.64 6.33 -10.28 6.66 -13 7 C-13 6.34 -13 5.68 -13 5 C-11.68 4.67 -10.36 4.34 -9 4 C-9.33 3.01 -9.66 2.02 -10 1 C-9.36191406 1.01160156 -8.72382813 1.02320313 -8.06640625 1.03515625 C-7.24011719 1.04417969 -6.41382813 1.05320312 -5.5625 1.0625 C-4.32693359 1.07990234 -4.32693359 1.07990234 -3.06640625 1.09765625 C-1.00836062 1.23267348 -1.00836062 1.23267348 0 0 Z " fill="#7BB517" transform="translate(410,285)"/>
<path d="M0 0 C0.33 0 0.66 0 1 0 C1.05389087 1.95803507 1.09274217 3.91648909 1.125 5.875 C1.14820313 6.96554688 1.17140625 8.05609375 1.1953125 9.1796875 C1 12 1 12 -1 14 C-4 12 -4 12 -5 9.25 C-5 5.74129258 -4.73724519 5.20120656 -2.625 2.625 C-1.75875 1.75875 -0.8925 0.8925 0 0 Z " fill="#A4C81B" transform="translate(444,248)"/>
<path d="M0 0 C9.81676933 -0.77365082 9.81676933 -0.77365082 14.25 2.125 C16 5 16 5 15.8125 8.3125 C15.544375 9.199375 15.27625 10.08625 15 11 C13 8 13 8 12.2265625 5.890625 C11.11025817 3.73219596 11.11025817 3.73219596 8.3984375 3.171875 C6.90183594 2.96304688 6.90183594 2.96304688 5.375 2.75 C3.87066406 2.52570313 3.87066406 2.52570313 2.3359375 2.296875 C1.56507813 2.19890625 0.79421875 2.1009375 0 2 C0 1.34 0 0.68 0 0 Z " fill="#F7EB14" transform="translate(197,123)"/>
<path d="M0 0 C0.845625 0.350625 1.69125 0.70125 2.5625 1.0625 C6.00775492 2.38759805 9.33107791 2.62688928 13 3 C13 3.33 13 3.66 13 4 C5.23656729 4.36015925 -1.77840795 4.13606985 -9 1 C-9.66 0.34 -10.32 -0.32 -11 -1 C-7.49508359 -2.7524582 -3.65127005 -0.99580092 0 0 Z " fill="#A7CF69" transform="translate(207,309)"/>
<path d="M0 0 C2.97 0 5.94 0 9 0 C9 0.99 9 1.98 9 3 C9.66 3.33 10.32 3.66 11 4 C10.67 5.32 10.34 6.64 10 8 C8.0625 7.6875 8.0625 7.6875 6 7 C5.67 6.01 5.34 5.02 5 4 C3.68352881 3.30062468 2.34977849 2.63270867 1 2 C0.67 1.34 0.34 0.68 0 0 Z " fill="#5FA904" transform="translate(167,286)"/>
<path d="M0 0 C0.33 1.32 0.66 2.64 1 4 C1.66 4 2.32 4 3 4 C3.99 6.31 4.98 8.62 6 11 C2.7173068 9.50923566 0.06922559 7.61379679 -2.75 5.375 C-3.54921875 4.74335938 -4.3484375 4.11171875 -5.171875 3.4609375 C-5.77515625 2.97882813 -6.3784375 2.49671875 -7 2 C-4 0 -4 0 0 0 Z " fill="#497F85" transform="translate(316,280)"/>
<path d="M0 0 C2.33294775 -0.04241723 4.66702567 -0.04092937 7 0 C7.33 0.33 7.66 0.66 8 1 C9.33630117 1.29430772 10.68419222 1.53661833 12.03515625 1.75390625 C13.24848633 1.95209961 13.24848633 1.95209961 14.48632812 2.15429688 C15.33646484 2.28900391 16.18660156 2.42371094 17.0625 2.5625 C17.91650391 2.70107422 18.77050781 2.83964844 19.65039062 2.98242188 C21.76634451 3.32523005 23.88310118 3.66307616 26 4 C25.34 4.66 24.68 5.32 24 6 C20.49104544 5.99878034 17.02837974 5.33456682 13.5625 4.8125 C12.59505859 4.68552734 11.62761719 4.55855469 10.63085938 4.42773438 C9.70208984 4.29302734 8.77332031 4.15832031 7.81640625 4.01953125 C6.96506104 3.89682861 6.11371582 3.77412598 5.23657227 3.64770508 C2.7122056 2.91665555 1.66465974 1.99413424 0 0 Z " fill="#81E884" transform="translate(303,204)"/>
<path d="M0 0 C0.99 1.32 1.98 2.64 3 4 C0.66666667 6.33333333 -1.66666667 8.66666667 -4 11 C-4.99 11 -5.98 11 -7 11 C-7 9.02 -7 7.04 -7 5 C-4.525 5.495 -4.525 5.495 -2 6 C-1.34 4.02 -0.68 2.04 0 0 Z " fill="#3A7B85" transform="translate(265,277)"/>
<path d="M0 0 C4.56716418 -0.12686567 4.56716418 -0.12686567 6.8125 0.53125 C9.58524249 1.12540911 11.9358863 0.86401218 14.75 0.5625 C16.22726563 0.40974609 16.22726563 0.40974609 17.734375 0.25390625 C18.48203125 0.17011719 19.2296875 0.08632812 20 0 C19.67 0.66 19.34 1.32 19 2 C16.71027598 2.6310491 14.39101298 3.15693343 12.0625 3.625 C10.79535156 3.88539063 9.52820313 4.14578125 8.22265625 4.4140625 C5 5 5 5 3 5 C3 4.01 3 3.02 3 2 C2.01 2 1.02 2 0 2 C0 1.34 0 0.68 0 0 Z " fill="#39DF6D" transform="translate(233,214)"/>
<path d="M0 0 C1.04929687 -0.01417969 2.09859375 -0.02835938 3.1796875 -0.04296875 C6.06047071 0.18245063 7.68740208 0.69785683 10.125 2.1875 C4.1709943 3.63706678 -0.86286259 4.72251381 -6.875 3.1875 C-7.205 2.5275 -7.535 1.8675 -7.875 1.1875 C-5.17835792 -0.16082104 -3.00912479 0.01839318 0 0 Z " fill="#D4ED8D" transform="translate(285.875,183.8125)"/>
<path d="M0 0 C-1.7869772 2.51801333 -3.21526844 3.84412866 -6.28125 4.453125 C-8.85296028 4.68550846 -11.42257079 4.84600266 -14 5 C-16.00360906 5.31090485 -18.0059626 5.63267732 -20 6 C-19.67 5.01 -19.34 4.02 -19 3 C-18.22914063 2.86722656 -17.45828125 2.73445312 -16.6640625 2.59765625 C-15.66117188 2.42105469 -14.65828125 2.24445313 -13.625 2.0625 C-12.62726563 1.88847656 -11.62953125 1.71445313 -10.6015625 1.53515625 C-2.83869116 -0.06171068 -2.83869116 -0.06171068 0 0 Z " fill="#19DB5C" transform="translate(264,215)"/>
<path d="M0 0 C7.75 0.875 7.75 0.875 10 2 C14.53113746 2.14856188 18.57882704 2.10529324 23 1 C22.34 2.32 21.68 3.64 21 5 C19.41705218 5.05437607 17.83355744 5.09296271 16.25 5.125 C15.36828125 5.14820313 14.4865625 5.17140625 13.578125 5.1953125 C10.84295933 4.98810298 9.38188574 4.28856114 7 3 C4.67504723 2.61250787 2.34148732 2.27017161 0 2 C0 1.34 0 0.68 0 0 Z " fill="#44E274" transform="translate(320,213)"/>
<path d="M0 0 C1.46184058 0.22860058 2.91955419 0.48370392 4.375 0.75 C5.59316406 0.95882813 5.59316406 0.95882813 6.8359375 1.171875 C9 2 9 2 10.15625 3.9375 C10.4346875 4.618125 10.713125 5.29875 11 6 C12.29470975 7.37086915 13.62150897 8.71340837 15 10 C11.41815751 10 9.99035911 9.06642869 6.9375 7.25 C6.05964844 6.73953125 5.18179688 6.2290625 4.27734375 5.703125 C1.9172941 3.9381479 1.0446979 2.71503408 0 0 Z " fill="#8FBC52" transform="translate(159,283)"/>
<path d="M0 0 C3.95906817 1.43308135 7.28718181 3.33141949 10.8125 5.625 C11.78832031 6.25664062 12.76414062 6.88828125 13.76953125 7.5390625 C14.50558594 8.02117187 15.24164063 8.50328125 16 9 C15.67 9.66 15.34 10.32 15 11 C13.9275 10.360625 12.855 9.72125 11.75 9.0625 C9.19177818 7.59398727 6.94659114 6.47145458 4 6 C4 5.34 4 4.68 4 4 C2.68 3.67 1.36 3.34 0 3 C0 2.01 0 1.02 0 0 Z " fill="#017D4C" transform="translate(344,255)"/>
<path d="M0 0 C0.66 0.33 1.32 0.66 2 1 C0.75 3 0.75 3 -1 5 C-2.32 5 -3.64 5 -5 5 C-5.433125 5.928125 -5.433125 5.928125 -5.875 6.875 C-7.46406122 9.87656008 -9.15876045 11.1058403 -12 13 C-12.375 10.76953125 -12.375 10.76953125 -12 8 C-9.375 5.76171875 -9.375 5.76171875 -6 3.6875 C-4.88625 2.99011719 -3.7725 2.29273438 -2.625 1.57421875 C-1.75875 1.05472656 -0.8925 0.53523438 0 0 Z " fill="#028F64" transform="translate(229,256)"/>
<path d="M0 0 C6.30839521 3.31960761 12.30784406 6.69925996 18 11 C14.86650268 12.04449911 14.01031744 11.93423645 11 11 C10.67 9.68 10.34 8.36 10 7 C8.68 7 7.36 7 6 7 C5.67 6.34 5.34 5.68 5 5 C3.35636866 4.27840576 1.68949614 3.60648579 0 3 C0 2.01 0 1.02 0 0 Z " fill="#019249" transform="translate(323,241)"/>
<path d="M0 0 C-1.485 2.475 -1.485 2.475 -3 5 C-3.99 4.34 -4.98 3.68 -6 3 C-8.00838196 3.64097297 -10.00827818 4.30899447 -12 5 C-14.375 4.625 -14.375 4.625 -16 4 C-10.73447695 0.59289685 -6.27287468 -1.84496314 0 0 Z " fill="#69E072" transform="translate(239,206)"/>
<path d="M0 0 C0 0.66 0 1.32 0 2 C-0.99 2.495 -0.99 2.495 -2 3 C-1.67 3.99 -1.34 4.98 -1 6 C-4.63 7.32 -8.26 8.64 -12 10 C-10.09559036 6.19118071 -9.26335631 5.12553143 -6 2.75 C-5.29875 2.22921875 -4.5975 1.7084375 -3.875 1.171875 C-2 0 -2 0 0 0 Z " fill="#F2F064" transform="translate(144,152)"/>
<path d="M0 0 C-1.39176632 0.96423026 -2.7886223 1.92111602 -4.1875 2.875 C-4.96480469 3.40867187 -5.74210937 3.94234375 -6.54296875 4.4921875 C-8.9676609 5.98015439 -11.3333499 7.02428078 -14 8 C-14.33 7.01 -14.66 6.02 -15 5 C-14.01 5 -13.02 5 -12 5 C-11.67 4.01 -11.34 3.02 -11 2 C-10.34 2 -9.68 2 -9 2 C-8.67 1.34 -8.34 0.68 -8 0 C-2.55072464 -1.27536232 -2.55072464 -1.27536232 0 0 Z " fill="#B6D15F" transform="translate(437,273)"/>
<path d="M0 0 C1.875 0.25 1.875 0.25 4 1 C5.25 3.0625 5.25 3.0625 6 5 C4.8125 6.5 4.8125 6.5 3 8 C0.3125 8.1875 0.3125 8.1875 -2 8 C-2.20086443 4.28400809 -2.1519437 3.22791555 0 0 Z " fill="#4EE160" transform="translate(342,206)"/>
<path d="M0 0 C-2.5316553 2.5316553 -5.06298894 5.0614892 -7.625 7.5625 C-9.63083473 9.62111985 -11.34964689 11.65476137 -13 14 C-13 12.35 -13 10.7 -13 9 C-11.35 8.34 -9.7 7.68 -8 7 C-8.66 5.68 -9.32 4.36 -10 3 C-9.01 3 -8.02 3 -7 3 C-7 2.34 -7 1.68 -7 1 C-3.375 -1.125 -3.375 -1.125 0 0 Z " fill="#F1EB2A" transform="translate(151,151)"/>
<path d="M0 0 C2.97 0.495 2.97 0.495 6 1 C6.33 1.99 6.66 2.98 7 4 C7.66 4.33 8.32 4.66 9 5 C7.68 5.99 6.36 6.98 5 8 C3.02 6.35 1.04 4.7 -1 3 C-0.67 2.01 -0.34 1.02 0 0 Z " fill="#F5E92D" transform="translate(403,137)"/>
<path d="M0 0 C2.97 0 5.94 0 9 0 C8 3 8 3 6.22265625 4.1328125 C5.50980469 4.46023437 4.79695312 4.78765625 4.0625 5.125 C3.35222656 5.45757812 2.64195312 5.79015625 1.91015625 6.1328125 C1.27980469 6.41898438 0.64945313 6.70515625 0 7 C-0.99 7.495 -0.99 7.495 -2 8 C-2.66 7.34 -3.32 6.68 -4 6 C-2.68 5.67 -1.36 5.34 0 5 C0 3.35 0 1.7 0 0 Z " fill="#FCF86D" transform="translate(191,134)"/>
<path d="M0 0 C-0.98863817 2.69628591 -1.62588888 3.79691111 -4.1875 5.1875 C-7.44151205 6.12754793 -10.6393374 6.60462793 -14 7 C-12.625 5.5 -12.625 5.5 -11 4 C-10.34 4 -9.68 4 -9 4 C-8.67 3.01 -8.34 2.02 -8 1 C-2.25 0 -2.25 0 0 0 Z " fill="#B4D315" transform="translate(200,225)"/>
<path d="M0 0 C1.98 0 3.96 0 6 0 C6 0.66 6 1.32 6 2 C7.65 2 9.3 2 11 2 C7.9315153 4.97550031 6.53763669 5.96474513 2.1875 6.25 C1.135625 6.1675 0.08375 6.085 -1 6 C-0.34 5.67 0.32 5.34 1 5 C0.67 3.35 0.34 1.7 0 0 Z " fill="#2ADB56" transform="translate(349,212)"/>
<path d="M0 0 C0.99 0 1.98 0 3 0 C3.33 0.99 3.66 1.98 4 3 C1.28242887 6.64930981 -1.72136362 9.8427946 -5 13 C-5.66 12.67 -6.32 12.34 -7 12 C-7 11.34 -7 10.68 -7 10 C-6.21625 9.4225 -5.4325 8.845 -4.625 8.25 C-1.60192016 5.65878871 -0.95078902 3.80315606 0 0 Z " fill="#F6F23A" transform="translate(165,140)"/>
<path d="M0 0 C8.25 0.33 16.5 0.66 25 1 C25 1.33 25 1.66 25 2 C24.38479492 2.01981934 23.76958984 2.03963867 23.13574219 2.06005859 C20.34007458 2.15549727 17.5451349 2.26509955 14.75 2.375 C13.29787109 2.42140625 13.29787109 2.42140625 11.81640625 2.46875 C10.88183594 2.50742188 9.94726562 2.54609375 8.984375 2.5859375 C8.12553711 2.6173584 7.26669922 2.6487793 6.38183594 2.68115234 C3.8717972 3.01716204 2.18067672 3.74191728 0 5 C0 3.35 0 1.7 0 0 Z " fill="#12D862" transform="translate(217,220)"/>
<path d="M0 0 C5.35048061 0.37328935 7.50912907 1.9957657 11 6 C10.67 6.66 10.34 7.32 10 8 C8.35 6.68 6.7 5.36 5 4 C4.34 4.66 3.68 5.32 3 6 C0.525 5.01 0.525 5.01 -2 4 C-1.34 2.68 -0.68 1.36 0 0 Z " fill="#EFE85B" transform="translate(434,154)"/>
<path d="M0 0 C0 0.66 0 1.32 0 2 C-0.99 2.495 -0.99 2.495 -2 3 C-2 3.66 -2 4.32 -2 5 C-1.01 5.66 -0.02 6.32 1 7 C-0.65 7.66 -2.3 8.32 -4 9 C-4 8.01 -4 7.02 -4 6 C-6.64 6.33 -9.28 6.66 -12 7 C-9.20232475 3.70861735 -4.40323273 0 0 0 Z " fill="#A3EA94" transform="translate(247,197)"/>
<path d="M0 0 C3.59391114 1.33488128 6.75490696 2.96022723 10 5 C6.18510326 6.46726798 3.70988378 5.43336419 0 4 C-0.33 4.66 -0.66 5.32 -1 6 C-1.66 4.68 -2.32 3.36 -3 2 C-2.01 2 -1.02 2 0 2 C0 1.34 0 0.68 0 0 Z " fill="#9CE988" transform="translate(332,198)"/>
<path d="M0 0 C3.9375 0.4375 3.9375 0.4375 5.9375 1.9375 C6.4325 2.68 6.4325 2.68 6.9375 3.4375 C4.05334117 4.87957941 1.52028472 4.53144887 -1.6875 4.5 C-2.87601562 4.49097656 -4.06453125 4.48195313 -5.2890625 4.47265625 C-6.20429688 4.46105469 -7.11953125 4.44945313 -8.0625 4.4375 C-5.46692969 1.50514428 -4.01115594 -0.11592936 0 0 Z " fill="#F4EE5C" transform="translate(375.0625,119.5625)"/>
<path d="M0 0 C0.66 0.33 1.32 0.66 2 1 C0.625 3 0.625 3 -1 5 C-1.66 5 -2.32 5 -3 5 C-3 5.66 -3 6.32 -3 7 C-5.97 7.66 -8.94 8.32 -12 9 C-8.63378119 5.21300384 -4.58358196 2.1727369 0 0 Z " fill="#019859" transform="translate(243,247)"/>
<path d="M0 0 C-0.66 1.65 -1.32 3.3 -2 5 C-2.99 5 -3.98 5 -5 5 C-5 8.96 -5 12.92 -5 17 C-5.33 17 -5.66 17 -6 17 C-6 11.39 -6 5.78 -6 0 C-2 -1 -2 -1 0 0 Z " fill="#31D65C" transform="translate(222,215)"/>
<path d="M0 0 C0 0.33 0 0.66 0 1 C-0.60328125 1.13277344 -1.2065625 1.26554688 -1.828125 1.40234375 C-3.02695312 1.66724609 -3.02695312 1.66724609 -4.25 1.9375 C-5.03890625 2.11152344 -5.8278125 2.28554687 -6.640625 2.46484375 C-8.12169583 2.800782 -9.59732093 3.16290571 -11.0625 3.5625 C-14.03444135 4.23358353 -16.96752019 4.05831692 -20 4 C-19 2 -19 2 -16.1875 0.875 C-10.89869835 -0.54124814 -5.42688321 -0.16040049 0 0 Z " fill="#28DD62" transform="translate(265,214)"/>
<path d="M0 0 C1.67299959 0.65061095 3.33859237 1.32033324 5 2 C5.7425 2.28875 6.485 2.5775 7.25 2.875 C9 4 9 4 9.75 6.125 C9.87375 7.053125 9.87375 7.053125 10 8 C5.61999924 7.49942848 3.15830185 6.06806466 0 3 C0 2.01 0 1.02 0 0 Z " fill="#0F426A" transform="translate(335,296)"/>
<path d="M0 0 C0 0.66 0 1.32 0 2 C-6.3246158 3.7899856 -12.4491015 4.54240047 -19 5 C-16.07540663 2.53469612 -13.81790145 1.48951382 -10.0625 0.8125 C-8.81146484 0.57466797 -8.81146484 0.57466797 -7.53515625 0.33203125 C-4.99184871 -0.00106758 -2.56182553 -0.05957734 0 0 Z " fill="#D4EE99" transform="translate(276,186)"/>
<path d="M0 0 C0.7734375 0.433125 0.7734375 0.433125 1.5625 0.875 C6.95488323 3.36379226 11.16503079 4.42316322 17 3 C17 3.66 17 4.32 17 5 C13.51759156 6.74120422 9.79864191 6.59174824 6 6 C3.48274331 4.58563874 2.02308871 3.12683685 0 1 C0 0.67 0 0.34 0 0 Z " fill="#17434D" transform="translate(336,300)"/>
<path d="M0 0 C0.33 0 0.66 0 1 0 C1.33 1.65 1.66 3.3 2 5 C2.66 5 3.32 5 4 5 C4.12375 5.556875 4.2475 6.11375 4.375 6.6875 C5.05976855 9.22114364 5.99133763 11.57921032 7 14 C5.0625 13.1875 5.0625 13.1875 3 12 C2.67 11.01 2.34 10.02 2 9 C1.34 9 0.68 9 0 9 C0 6.03 0 3.06 0 0 Z " fill="#A3CA09" transform="translate(131,239)"/>
<path d="M0 0 C-1.90726751 1.20253816 -3.8262012 2.38658949 -5.75 3.5625 C-6.81734375 4.22378906 -7.8846875 4.88507813 -8.984375 5.56640625 C-12 7 -12 7 -14.390625 6.71484375 C-14.92171875 6.47894531 -15.4528125 6.24304688 -16 6 C-15.01 5.67 -14.02 5.34 -13 5 C-12.67 4.34 -12.34 3.68 -12 3 C-11.01 3 -10.02 3 -9 3 C-8.67 2.01 -8.34 1.02 -8 0 C-2.25 -1.125 -2.25 -1.125 0 0 Z " fill="#B3D477" transform="translate(389,304)"/>
<path d="M0 0 C-1.41042956 0.84384675 -2.82864132 1.67469496 -4.25 2.5 C-5.43335938 3.19609375 -5.43335938 3.19609375 -6.640625 3.90625 C-9 5 -9 5 -13 5 C-13 4.34 -13 3.68 -13 3 C-12.01 3 -11.02 3 -10 3 C-10 2.34 -10 1.68 -10 1 C-8.71073008 0.63720544 -7.41846728 0.28503302 -6.125 -0.0625 C-5.40570313 -0.25972656 -4.68640625 -0.45695312 -3.9453125 -0.66015625 C-2 -1 -2 -1 0 0 Z " fill="#A5CD73" transform="translate(237,306)"/>
<path d="M0 0 C2.31 0.66 4.62 1.32 7 2 C4.45543849 4.96865509 1.51005335 6.3619751 -2 8 C-2.33 6.68 -2.66 5.36 -3 4 C-2.01 4 -1.02 4 0 4 C0 2.68 0 1.36 0 0 Z " fill="#529291" transform="translate(271,273)"/>
<path d="M0 0 C-1.2739589 2.03833424 -2.61061923 4.03852126 -4 6 C-4.66 6 -5.32 6 -6 6 C-6.33 6.99 -6.66 7.98 -7 9 C-7.79953138 5.71303767 -8.09658936 4.28976808 -7 1 C-2.55696203 -1.27848101 -2.55696203 -1.27848101 0 0 Z " fill="#B7D530" transform="translate(441,253)"/>
<path d="M0 0 C1.32 0.33 2.64 0.66 4 1 C4.25 3.8125 4.25 3.8125 4 7 C2.68 7.99 1.36 8.98 0 10 C0 6.7 0 3.4 0 0 Z " fill="#F9EB11" transform="translate(363,129)"/>
<path d="M0 0 C0.99 0.33 1.98 0.66 3 1 C1.21475351 2.19713017 -0.5784028 3.38247279 -2.375 4.5625 C-3.87160156 5.55443359 -3.87160156 5.55443359 -5.3984375 6.56640625 C-6.25695312 7.03949219 -7.11546875 7.51257813 -8 8 C-8.66 7.67 -9.32 7.34 -10 7 C-6.66740576 2.18625277 -6.66740576 2.18625277 -3.3125 1.25 C-2.549375 1.1675 -1.78625 1.085 -1 1 C-0.67 0.67 -0.34 0.34 0 0 Z " fill="#A2CC06" transform="translate(169,240)"/>
<path d="M0 0 C0 3 0 3 -2.375 5.6875 C-5 8 -5 8 -7 8 C-6.62952882 5.25851328 -6.31412056 3.41406801 -4.625 1.1875 C-3 0 -3 0 0 0 Z " fill="#20DE52" transform="translate(227,212)"/>
<path d="M0 0 C0 0.66 0 1.32 0 2 C-4.65474354 4.84984298 -8.70139194 6.7023817 -14 8 C-10.67417683 4.11987297 -5.34770586 0 0 0 Z " fill="#F6F586" transform="translate(158,144)"/>
<path d="M0 0 C-4.455 2.97 -4.455 2.97 -9 6 C-9.66 5.67 -10.32 5.34 -11 5 C-10.67 4.01 -10.34 3.02 -10 2 C-9.01 2 -8.02 2 -7 2 C-7 1.34 -7 0.68 -7 0 C-4 -1 -4 -1 0 0 Z " fill="#A1C861" transform="translate(412,289)"/>
<path d="M0 0 C0.042721 1.66611905 0.04063832 3.33382885 0 5 C-1 6 -1 6 -4.0625 6.0625 C-5.5165625 6.0315625 -5.5165625 6.0315625 -7 6 C-5.96849913 3.42124782 -5.35028898 2.21229635 -2.9375 0.75 C-1 0 -1 0 0 0 Z " fill="#A4D01B" transform="translate(215,216)"/>
<path d="M0 0 C3.83225427 -0.08912219 7.26562152 0.12132271 11 1 C11 1.66 11 2.32 11 3 C10.01 3.495 10.01 3.495 9 4 C9.33 4.66 9.66 5.32 10 6 C6.66666667 4.33333333 3.33333333 2.66666667 0 1 C0 0.67 0 0.34 0 0 Z " fill="#9FCA61" transform="translate(181,299)"/>
<path d="M0 0 C1.59863543 2.1799574 2.48161931 4.33230111 3.375 6.875 C-0.44184226 5.31999019 -2.81695732 2.83904505 -5.625 -0.125 C-2.10767327 -1.45915842 -2.10767327 -1.45915842 0 0 Z " fill="#668C9F" transform="translate(327.625,291.125)"/>
<path d="M0 0 C3.95820859 0.56545837 6.6659053 1.80902348 10 4 C7.39902318 5.30048841 4.86044938 5.56471422 2 6 C1.34 4.02 0.68 2.04 0 0 Z " fill="#D3F0A1" transform="translate(313,188)"/>
<path d="M0 0 C1.98 0 3.96 0 6 0 C6 0.66 6 1.32 6 2 C6.66 2.33 7.32 2.66 8 3 C8 4.32 8 5.64 8 7 C7.34 7 6.68 7 6 7 C6 6.01 6 5.02 6 4 C4.35 3.67 2.7 3.34 1 3 C0.67 2.01 0.34 1.02 0 0 Z " fill="#BDEC78" transform="translate(308,189)"/>
<path d="M0 0 C1.48199902 0.44909061 2.96055236 0.90956564 4.4375 1.375 C5.26121094 1.63023437 6.08492188 1.88546875 6.93359375 2.1484375 C9 3 9 3 10 5 C7.03 5 4.06 5 1 5 C0.67 3.35 0.34 1.7 0 0 Z " fill="#F6EB57" transform="translate(399,133)"/>
<path d="M0 0 C1.2065625 0.0309375 1.2065625 0.0309375 2.4375 0.0625 C2.4375 1.0525 2.4375 2.0425 2.4375 3.0625 C1.4475 3.0625 0.4575 3.0625 -0.5625 3.0625 C-0.2325 4.3825 0.0975 5.7025 0.4375 7.0625 C-0.5525 6.7325 -1.5425 6.4025 -2.5625 6.0625 C-2.94468767 4.40635343 -3.27645102 2.73792976 -3.5625 1.0625 C-2.5625 0.0625 -2.5625 0.0625 0 0 Z " fill="#106A69" transform="translate(268.5625,273.9375)"/>
<path d="M0 0 C4.62 0.66 9.24 1.32 14 2 C14 2.33 14 2.66 14 3 C9.71 3 5.42 3 1 3 C0.67 2.01 0.34 1.02 0 0 Z " fill="#26E06F" transform="translate(329,218)"/>
<path d="M0 0 C0.33 0 0.66 0 1 0 C1 3.63 1 7.26 1 11 C0.01 11.495 0.01 11.495 -1 12 C-1.99 10.68 -2.98 9.36 -4 8 C-2.68 7.34 -1.36 6.68 0 6 C0 4.02 0 2.04 0 0 Z " fill="#C9D91B" transform="translate(214,205)"/>
<path d="M0 0 C-1.28524261 0.86380259 -2.57842419 1.71580369 -3.875 2.5625 C-4.59429687 3.03816406 -5.31359375 3.51382812 -6.0546875 4.00390625 C-6.69664062 4.33261719 -7.33859375 4.66132813 -8 5 C-8.66 4.67 -9.32 4.34 -10 4 C-9 1 -9 1 -6.6875 -0.25 C-3.83402593 -1.04631835 -2.75197675 -0.8214856 0 0 Z " fill="#B0CE74" transform="translate(422,283)"/>
<path d="M0 0 C0.598125 0.20625 1.19625 0.4125 1.8125 0.625 C-0.1875 3.625 -0.1875 3.625 -3.3125 4.3125 C-4.26125 4.415625 -5.21 4.51875 -6.1875 4.625 C-5.03076352 1.15479057 -3.91311293 -0.67081936 0 0 Z " fill="#07BD5A" transform="translate(262.1875,234.375)"/>
<path d="M0 0 C0.33 0.66 0.66 1.32 1 2 C3.02463255 2.65213292 3.02463255 2.65213292 5 3 C5 3.66 5 4.32 5 5 C6.32 5.33 7.64 5.66 9 6 C8.67 6.66 8.34 7.32 8 8 C5.04987143 6.63029745 2.4347778 5.17390875 0 3 C0 2.01 0 1.02 0 0 Z " fill="#7AB905" transform="translate(363,263)"/>
<path d="M0 0 C2.3125 -0.3125 2.3125 -0.3125 5 0 C6.8125 2.5 6.8125 2.5 8 5 C7.01 5.495 7.01 5.495 6 6 C3.96166576 4.7260411 1.96147874 3.38938077 0 2 C0 1.34 0 0.68 0 0 Z " fill="#BFD824" transform="translate(418,247)"/>
<path d="M0 0 C-0.33 0.99 -0.66 1.98 -1 3 C-4.13349732 4.04449911 -4.98968256 3.93423645 -8 3 C-8.33 3.66 -8.66 4.32 -9 5 C-9.99 4.67 -10.98 4.34 -12 4 C-2.7826087 0 -2.7826087 0 0 0 Z " fill="#83E57E" transform="translate(242,202)"/>
<path d="M0 0 C0.66 0.33 1.32 0.66 2 1 C1.67 1.99 1.34 2.98 1 4 C1.66 4 2.32 4 3 4 C2.67 5.32 2.34 6.64 2 8 C0.68 6.68 -0.64 5.36 -2 4 C-1.34 2.68 -0.68 1.36 0 0 Z " fill="#7DB311" transform="translate(141,266)"/>
<path d="M0 0 C0.99 0 1.98 0 3 0 C2.67 2.31 2.34 4.62 2 7 C0.68 6.34 -0.64 5.68 -2 5 C-1.34 3.35 -0.68 1.7 0 0 Z " fill="#98C01E" transform="translate(442,255)"/>
<path d="M0 0 C2.31 0.33 4.62 0.66 7 1 C7 1.66 7 2.32 7 3 C6.01 3 5.02 3 4 3 C4.33 3.99 4.66 4.98 5 6 C3.0625 5.25 3.0625 5.25 1 4 C0.25 1.875 0.25 1.875 0 0 Z " fill="#8FE764" transform="translate(325,197)"/>
<path d="M0 0 C1.32 0.33 2.64 0.66 4 1 C2.68 2.65 1.36 4.3 0 6 C-0.99 5.67 -1.98 5.34 -3 5 C-2.67 4.01 -2.34 3.02 -2 2 C-1.34 2 -0.68 2 0 2 C0 1.34 0 0.68 0 0 Z " fill="#8BE462" transform="translate(247,197)"/>
<path d="M0 0 C-0.6875 1.9375 -0.6875 1.9375 -2 4 C-4.625 4.75 -4.625 4.75 -7 5 C-5.22678182 1.07358831 -4.52021524 0 0 0 Z " fill="#F2ED2F" transform="translate(184,156)"/>
<path d="M0 0 C0.33 0 0.66 0 1 0 C2.6148266 4.08456139 3.41164374 6.76506878 2 11 C1.34 11.66 0.68 12.32 0 13 C0.020625 11.906875 0.04125 10.81375 0.0625 9.6875 C0.18544452 6.05615809 0.18544452 6.05615809 -1 3 C-0.67 2.01 -0.34 1.02 0 0 Z " fill="#F8F144" transform="translate(208,135)"/>
<path d="M0 0 C2.475 0.495 2.475 0.495 5 1 C5 2.98 5 4.96 5 7 C4.34 7 3.68 7 3 7 C0.70351351 4.4385343 0 3.52032428 0 0 Z " fill="#12507F" transform="translate(219,296)"/>
<path d="M0 0 C3.82097239 0.53069061 6.06171403 1.49701566 9 4 C7.68 4.33 6.36 4.66 5 5 C5 4.34 5 3.68 5 3 C3.35 2.67 1.7 2.34 0 2 C0 1.34 0 0.68 0 0 Z " fill="#F0E96D" transform="translate(428,150)"/>
<path d="M0 0 C2.64 0.33 5.28 0.66 8 1 C7.67 1.99 7.34 2.98 7 4 C4.03 3.505 4.03 3.505 1 3 C0.67 2.01 0.34 1.02 0 0 Z " fill="#F9EC22" transform="translate(377,123)"/>
<path d="M0 0 C1.98 0 3.96 0 6 0 C6 0.66 6 1.32 6 2 C8.31 2 10.62 2 13 2 C13 2.33 13 2.66 13 3 C4.80743982 3.4726477 4.80743982 3.4726477 1.4375 1.5 C0.963125 1.005 0.48875 0.51 0 0 Z " fill="#1E5659" transform="translate(222,303)"/>
<path d="M0 0 C1.16095535 2.84961767 1.06567925 3.83945073 -0.125 6.75 C-2 9 -2 9 -4.6875 9.3125 C-5.450625 9.209375 -6.21375 9.10625 -7 9 C-6.21625 8.2575 -5.4325 7.515 -4.625 6.75 C-2.43495469 4.45566682 -1.17268614 2.87841142 0 0 Z " fill="#61A12C" transform="translate(360,296)"/>
<path d="M0 0 C2.4375 0.75 2.4375 0.75 5 2 C5.8125 4.125 5.8125 4.125 6 6 C4.125 5.8125 4.125 5.8125 2 5 C0.75 2.4375 0.75 2.4375 0 0 Z " fill="#134563" transform="translate(328,292)"/>
<path d="M0 0 C3.5875213 1.33250791 6.8364623 2.830717 10 5 C10 5.66 10 6.32 10 7 C5.56541027 5.6062718 3.12621626 3.39417765 0 0 Z " fill="#0EC666" transform="translate(322,239)"/>
<path d="M0 0 C3.875 4.75 3.875 4.75 5 7 C1.63408134 5.55746343 -0.51047079 3.66735273 -3 1 C-2.01 0.67 -1.02 0.34 0 0 Z " fill="#7D9AB0" transform="translate(334,297)"/>
<path d="M0 0 C2.64 0.66 5.28 1.32 8 2 C8.33 1.34 8.66 0.68 9 0 C8.67 1.32 8.34 2.64 8 4 C4.31245243 3.50168276 2.39509338 2.89932357 0 0 Z " fill="#156560" transform="translate(300,274)"/>
<path d="M0 0 C-0.33 0.99 -0.66 1.98 -1 3 C-4.5625 4.1875 -4.5625 4.1875 -8 5 C-3.375 0 -3.375 0 0 0 Z " fill="#0ABD65" transform="translate(254,240)"/>
<path d="M0 0 C-0.33 0.99 -0.66 1.98 -1 3 C-5.455 3.495 -5.455 3.495 -10 4 C-6.41473576 0.41473576 -4.91253954 0 0 0 Z " fill="#A4CA0C" transform="translate(196,228)"/>
<path d="M0 0 C3.45925163 1.2491742 6.14693203 2.67527795 9 5 C7.35 5 5.7 5 4 5 C4 4.34 4 3.68 4 3 C2.68 2.67 1.36 2.34 0 2 C0 1.34 0 0.68 0 0 Z " fill="#93E695" transform="translate(342,204)"/>
<path d="M0 0 C0 0.99 0 1.98 0 3 C-2.31 3.33 -4.62 3.66 -7 4 C-3.17391304 0 -3.17391304 0 0 0 Z " fill="#96BF20" transform="translate(437,269)"/>
<path d="M0 0 C-1.93254772 2.0245738 -3.63158688 3.42105792 -6 5 C-6 3.35 -6 1.7 -6 0 C-2.25 -1.125 -2.25 -1.125 0 0 Z " fill="#0B8468" transform="translate(223,264)"/>
<path d="M0 0 C2.6875 0.3125 2.6875 0.3125 5 1 C5 1.99 5 2.98 5 4 C2.36 3.67 -0.28 3.34 -3 3 C-1.8125 1.4375 -1.8125 1.4375 0 0 Z " fill="#BBEC95" transform="translate(250,194)"/>
<path d="M0 0 C1.32 0.66 2.64 1.32 4 2 C3.01 2.99 2.02 3.98 1 5 C0.01 4.67 -0.98 4.34 -2 4 C-1.34 2.68 -0.68 1.36 0 0 Z " fill="#ADE871" transform="translate(256,192)"/>
</svg>
