<?xml version="1.0" encoding="UTF-8"?>
<svg id="Layer_1" data-name="Layer 1" xmlns="http://www.w3.org/2000/svg" xmlns:xlink="http://www.w3.org/1999/xlink" viewBox="0 0 512 512">
  <defs>
    <style>
      .cls-1 {
        fill: url(#linear-gradient);
      }

      .cls-1, .cls-2, .cls-3, .cls-4, .cls-5, .cls-6, .cls-7, .cls-8, .cls-9, .cls-10 {
        stroke-width: 0px;
      }

      .cls-2 {
        fill: url(#linear-gradient-6);
      }

      .cls-3 {
        fill: #130c49;
      }

      .cls-4 {
        fill: url(#linear-gradient-5);
      }

      .cls-5 {
        fill: url(#linear-gradient-2);
      }

      .cls-6 {
        fill: url(#linear-gradient-7);
      }

      .cls-7 {
        fill: url(#linear-gradient-3);
      }

      .cls-8 {
        fill: url(#linear-gradient-9);
      }

      .cls-9 {
        fill: url(#linear-gradient-8);
      }

      .cls-10 {
        fill: url(#linear-gradient-4);
      }
    </style>
    <linearGradient id="linear-gradient" x1="93.65" y1="2653.86" x2="85.2" y2="2736.78" gradientTransform="translate(0 2947.92) scale(1 -1)" gradientUnits="userSpaceOnUse">
      <stop offset="0" stop-color="#75be2c"/>
      <stop offset=".86" stop-color="#9dc03b"/>
    </linearGradient>
    <linearGradient id="linear-gradient-2" x1="89.6" y1="2688.42" x2="89.6" y2="2661.25" gradientTransform="translate(0 2947.92) scale(1 -1)" gradientUnits="userSpaceOnUse">
      <stop offset="0" stop-color="#238d37"/>
      <stop offset=".94" stop-color="#35537f"/>
    </linearGradient>
    <linearGradient id="linear-gradient-3" x1="86.72" y1="2702.49" x2="90.94" y2="2674.83" gradientTransform="translate(0 2947.92) scale(1 -1)" gradientUnits="userSpaceOnUse">
      <stop offset="0" stop-color="#67d84d"/>
      <stop offset="1" stop-color="#348522"/>
    </linearGradient>
    <linearGradient id="linear-gradient-4" x1="128.69" y1="2724.29" x2="128.69" y2="2676.09" gradientTransform="translate(0 2947.92) scale(1 -1)" gradientUnits="userSpaceOnUse">
      <stop offset="0" stop-color="#e4d00a"/>
      <stop offset=".56" stop-color="#c4d132"/>
    </linearGradient>
    <linearGradient id="linear-gradient-5" x1="50.43" y1="2724.29" x2="50.43" y2="2676.08" xlink:href="#linear-gradient-4"/>
    <linearGradient id="linear-gradient-6" x1="117.69" y1="2675.54" x2="117.69" y2="2659.48" gradientTransform="translate(0 2947.92) scale(1 -1)" gradientUnits="userSpaceOnUse">
      <stop offset="0" stop-color="#8ab11b"/>
      <stop offset="1" stop-color="#6eaf02"/>
    </linearGradient>
    <linearGradient id="linear-gradient-7" x1="129.39" y1="2694.97" x2="126.01" y2="2667.9" xlink:href="#linear-gradient"/>
    <linearGradient id="linear-gradient-8" x1="61.45" y1="2675.5" x2="61.45" y2="2659.5" xlink:href="#linear-gradient-6"/>
    <linearGradient id="linear-gradient-9" x1="53.01" y1="2694.84" x2="49.69" y2="2662.29" xlink:href="#linear-gradient"/>
  </defs>
  <g id="Layer_1-2" data-name="Layer 1-2">
    <g>
      <g>
        <path class="cls-1" d="m139.77,235.08l-18.58-10.8c-3.12-1.81-7.03.45-7.03,4.04v27.31l-13.19-7.6c-7.07-4.07-15.77-4.06-22.82.03l-13.13,7.6v-27.35c0-3.61-3.9-5.86-7.03-4.04l-18.63,10.8c-2.16,1.25-3.48,3.57-3.48,6.06v25.67c0,1.8.45,3.51,1.28,5.02h0c.84,1.55,2.06,2.87,3.6,3.86l9.58,6.12,7.34,4.67c4.41,2.8,10.07,2.58,14.25-.57l.55-.43s.1-.09.16-.12l11.06-8.44c3.23-2.48,8.52-2.48,11.77,0l11.03,8.41s.04.03.06.04l.68.54c4.16,3.15,9.84,3.36,14.25.57l7.34-4.68,9.61-6.12c1.51-.97,2.73-2.3,3.57-3.83s1.29-3.23,1.29-5.03v-25.66h0c0-2.49-1.32-4.81-3.48-6.06h.01-.04Z"/>
        <path class="cls-5" d="m114.3,272.29v9.22c0,2.84-2.04,5.16-4.51,5.16-.97,0-2.19-.49-3.32-1.35l-11.03-8.41c-3.23-2.48-8.52-2.48-11.77,0l-11.06,8.44c-1.1.83-1.81,1.07-2.86,1.07-2.57.03-4.86-1.9-4.86-4.91v-9.19l15.8-10.21c5.42-3.49,12.35-3.49,17.76,0l15.83,9.97v.19h.01Z"/>
        <path class="cls-7" d="m114.16,255.64l.04,16.8-15.71-10.05c-5.41-3.46-12.34-3.46-17.76,0l-15.76,10.06.03-16.79,13.15-7.61c7.05-4.09,15.74-4.09,22.82-.03l13.19,7.6h0Z"/>
        <path class="cls-10" d="m143.25,241.14v25.66c0,1.81-.45,3.51-1.29,5.03l-27.82-16.19v-27.33c0-3.61,3.91-5.86,7.03-4.04l18.58,10.81c2.16,1.25,3.48,3.57,3.48,6.06h.01Z"/>
        <path class="cls-4" d="m64.98,228.31v27.35l-27.83,16.18c-.83-1.52-1.28-3.23-1.28-5.03v-25.67c0-2.49,1.32-4.81,3.48-6.06l18.6-10.81c3.12-1.81,7.03.45,7.03,4.04h0Z"/>
        <path class="cls-2" d="m109.4,286.35c2.46,0,4.78-1.94,4.78-4.75v-9.22l14.68,9.38-7.42,4.73c-4.41,2.8-10.07,2.59-14.25-.57l-.7-.55c1.04.71,1.93.99,2.9.99h0Z"/>
        <path class="cls-6" d="m141.96,271.84c-.84,1.52-2.06,2.86-3.57,3.83l-9.61,6.12-14.61-9.35-.04-16.8,27.82,16.21h.01Z"/>
        <path class="cls-9" d="m64.98,281.58c0,2.81,2.33,5.03,4.78,4.75,1.09-.13,1.94-.29,2.81-.96l-.67.52c-4.16,3.13-9.84,3.36-14.25.57l-7.34-4.68h0l14.66-9.36v9.15h0Z"/>
        <path class="cls-8" d="m64.98,255.66v16.77l-14.66,9.35h0l-9.58-6.09c-1.52-.97-2.75-2.3-3.6-3.86l27.82-16.18h.01Z"/>
      </g>
      <g>
        <path class="cls-3" d="m474.12,256.74c1.32-1.16,2-3.13,2-5.86,0-1.68-.41-3.39-1.19-5.09-.78-1.67-1.93-3.2-3.38-4.57-1.46-1.36-3.25-2.45-5.32-3.22-2.03-.84-4.36-1.26-6.94-1.26-3.77,0-7.18.84-10.12,2.49-2.9,1.61-5.2,3.84-6.87,6.65-1.65,2.8-2.51,6.04-2.51,9.61,0,2.68.45,5.22,1.32,7.55s2.17,4.44,3.84,6.26c1.71,1.75,3.81,3.17,6.23,4.22,2.44,1.03,5.23,1.55,8.32,1.55,2.77,0,5.26-.32,7.42-.93,2.22-.62,3.99-1.39,5.25-2.28,1.36-.97,2.04-1.88,2.04-2.77,0-.45-.06-.88-.17-1.28s-.33-.83-.67-1.28c-.3-.59-.74-1-1.3-1.19-.51-.25-1.04-.3-1.61-.17-.45.12-.91.3-1.41.58,0,0-.01,0-.03.01-.39.25-.86.49-1.38.72-.54.25-1.19.49-1.93.74-.72.25-1.59.43-2.58.59-.99.14-2.19.23-3.58.23-1.84,0-3.73-.42-5.57-1.25-1.8-.83-3.31-2-4.51-3.49-1.04-1.39-1.59-3.06-1.64-4.96h21.44c1.88,0,3.49-.55,4.81-1.64h.01,0Zm-5.32-5.78c0,.87-.17,1.44-.49,1.61-.26.14-.8.32-1.88.32h-18.56c.04-1.61.52-3.07,1.42-4.36,1-1.44,2.39-2.58,4.13-3.41,1.8-.87,3.8-1.32,5.93-1.32,1.84,0,3.48.35,4.87,1.01,1.44.67,2.57,1.57,3.38,2.67.8,1.03,1.19,2.17,1.19,3.48h.01Z"/>
        <path class="cls-3" d="m431.87,237.44c-.55-.17-1.2-.25-1.94-.25l-6.65.1v-9.78c0-.78-.09-1.42-.25-1.94-.19-.65-.59-1.15-1.22-1.46-.59-.36-1.38-.54-2.44-.54s-1.84.19-2.39.55c-.57.33-.94.81-1.12,1.45-.17.57-.25,1.23-.25,2.01v9.73l-3.41-.04h0c-1.16,0-2.03.32-2.58.96-.54.62-.81,1.55-.81,2.83s.2,2.25.62,2.86c0,0,.01.01.01.03.51.65,1.38.97,2.59.97l3.57-.04v17.12c0,2.38.23,4.41.7,6.06.48,1.64,1.29,3,2.41,4.04,1.12,1.03,2.52,1.81,4.22,2.3,1.7.48,3.78.72,6.18.72.7,0,1.32-.09,1.86-.25.7-.14,1.2-.51,1.52-1.09.35-.61.52-1.42.52-2.52,0-1.03-.14-1.8-.43-2.35-.32-.58-.8-.99-1.44-1.17-.55-.17-1.26-.26-2.12-.26-1.13,0-2.1-.06-2.88-.16-.7-.09-1.28-.32-1.7-.65-.38-.35-.68-.87-.9-1.54-.19-.78-.29-1.84-.29-3.13v-17.11l6.74.1c.75,0,1.41-.09,1.97-.26.64-.2,1.12-.59,1.44-1.2.29-.59.43-1.41.43-2.48s-.17-1.88-.52-2.44c-.32-.64-.81-1.04-1.45-1.17h0v-.03.03Z"/>
        <path class="cls-3" d="m401.4,237.31c-.51-.38-1.26-.57-2.35-.57-1.29,0-2.28.3-2.91.9-.62.57-.9,1.51-.84,2.8l.09,1.68c-.65-.72-1.35-1.41-2.12-2.01-1.16-1.01-2.57-1.83-4.17-2.41-1.62-.64-3.6-.96-5.87-.96-2.44,0-4.78.51-6.96,1.51-2.12,1-4.03,2.39-5.68,4.12-1.65,1.74-2.96,3.8-3.9,6.1-.88,2.26-1.32,4.71-1.32,7.29s.45,5.12,1.32,7.45c.93,2.3,2.22,4.38,3.81,6.18,1.65,1.8,3.58,3.2,5.7,4.2,2.17,1,4.55,1.51,7.03,1.51s4.73-.41,6.51-1.2c1.75-.84,3.2-1.81,4.32-2.88.51-.52.96-1,1.33-1.46l-.16,2.07v.1c.12,1.09.45,1.93.99,2.46,0,0,.01.01.03.01.61.57,1.51.83,2.77.83,1.06,0,1.86-.17,2.39-.54.57-.33.94-.84,1.13-1.54.16-.61.25-1.3.25-2.06v-29.76c0-.87-.09-1.61-.25-2.22-.19-.68-.55-1.22-1.1-1.59h-.03Zm-6.48,18.56c0,2.28-.49,4.32-1.45,6.09-.91,1.71-2.2,3.1-3.86,4.13-1.58,1.01-3.35,1.54-5.26,1.54-2.28,0-4.31-.49-6.03-1.46-1.68-1.03-3.03-2.42-3.99-4.13-.96-1.77-1.45-3.78-1.45-6s.49-4.31,1.45-6.07c.96-1.75,2.29-3.17,3.93-4.22,1.68-1.07,3.68-1.61,5.94-1.61,1.91,0,3.68.52,5.28,1.55,1.62.97,2.94,2.36,3.91,4.15,1.01,1.71,1.52,3.75,1.52,6.06h0Z"/>
        <g>
          <path class="cls-3" d="m357.33,237.23c-.55-.36-1.32-.54-2.39-.54s-1.91.14-2.52.45c-.58.32-.96.81-1.15,1.44-.17.55-.25,1.22-.25,1.97v30.62c0,.75.09,1.42.25,1.97.19.64.58,1.12,1.13,1.44.59.36,1.39.54,2.46.54s1.84-.14,2.35-.43c.64-.32,1.04-.81,1.25-1.45.17-.55.25-1.22.25-1.97v-30.54c0-.81-.09-1.49-.25-2.06-.19-.64-.57-1.12-1.13-1.44h0Z"/>
          <path class="cls-3" d="m357.62,224.08c-.64-.35-1.51-.52-2.67-.52s-2.09.17-2.73.51c-.68.32-1.15.86-1.38,1.58-.22.61-.33,1.36-.33,2.23s.09,1.61.25,2.26v.04c.25.72.7,1.3,1.35,1.71h.03c.64.36,1.54.54,2.74.54s2.1-.17,2.74-.52c.68-.38,1.12-.9,1.3-1.59.22-.65.33-1.42.33-2.28s-.12-1.62-.32-2.28c-.19-.74-.62-1.3-1.3-1.67h-.01Z"/>
        </g>
        <path class="cls-3" d="m342.03,237.37c-1.59-.8-2.83-.88-3.64-.26-.72.55-1.38,1.45-1.99,2.71l-10.58,25.05-10.81-25.82c-.57-1.3-1.29-2.07-2.16-2.26-.83-.23-1.81-.07-2.93.49-1.23.62-2,1.29-2.35,2.04-.38.75-.26,1.8.38,3.17l14,30.56s0,.03.01.03c.41.75.91,1.28,1.52,1.58.62.29,1.41.42,2.33.42.99,0,1.81-.17,2.44-.52.65-.36,1.15-.9,1.42-1.59l13.93-30.02c.49-1.03.72-1.99.72-2.87,0-1.07-.78-1.99-2.32-2.73h.01Z"/>
        <path class="cls-3" d="m299.97,237.31c-.51-.38-1.26-.57-2.35-.57-1.29,0-2.28.3-2.91.9-.62.57-.9,1.51-.84,2.8l.09,1.68c-.65-.72-1.35-1.41-2.12-2.01-1.16-1.01-2.57-1.83-4.17-2.41-1.62-.64-3.6-.96-5.87-.96-2.44,0-4.78.51-6.96,1.51-2.12,1-4.03,2.39-5.68,4.12-1.65,1.74-2.96,3.8-3.9,6.1-.88,2.26-1.32,4.71-1.32,7.29s.45,5.12,1.32,7.45c.93,2.3,2.22,4.38,3.81,6.18,1.65,1.8,3.58,3.2,5.7,4.2,2.17,1,4.55,1.51,7.03,1.51s4.73-.41,6.51-1.2c1.75-.84,3.2-1.81,4.32-2.88.51-.52.96-1,1.33-1.46l-.16,2.07v.1c.12,1.09.45,1.93.99,2.46,0,0,.01.01.03.01.61.57,1.51.83,2.77.83,1.06,0,1.84-.17,2.39-.54.57-.33.94-.84,1.13-1.54.16-.61.25-1.3.25-2.06v-29.76c0-.87-.09-1.61-.25-2.22-.19-.68-.55-1.22-1.1-1.59h-.03Zm-6.48,18.56c0,2.28-.49,4.32-1.45,6.09-.91,1.71-2.2,3.1-3.84,4.13-1.58,1.01-3.35,1.54-5.26,1.54-2.28,0-4.31-.49-6.03-1.46-1.68-1.03-3.03-2.42-3.99-4.13-.96-1.77-1.45-3.78-1.45-6s.49-4.32,1.45-6.07,2.28-3.17,3.93-4.22c1.68-1.07,3.68-1.61,5.94-1.61,1.91,0,3.68.52,5.28,1.55,1.62.97,2.94,2.36,3.91,4.15,1.01,1.71,1.52,3.75,1.52,6.06h-.01Z"/>
        <path class="cls-3" d="m253.2,241.23c-1.46-1.36-3.25-2.45-5.32-3.22-2.03-.84-4.36-1.26-6.94-1.26-3.77,0-7.18.84-10.12,2.49-2.9,1.61-5.2,3.84-6.87,6.65-1.65,2.8-2.51,6.04-2.51,9.61,0,2.68.45,5.23,1.32,7.55.88,2.33,2.16,4.44,3.84,6.26,1.71,1.75,3.81,3.17,6.23,4.22,2.44,1.03,5.23,1.55,8.32,1.55,2.77,0,5.26-.32,7.42-.93,2.22-.62,3.99-1.39,5.25-2.28,1.36-.97,2.04-1.88,2.04-2.77,0-.45-.06-.88-.17-1.28-.12-.41-.35-.83-.67-1.28-.3-.59-.74-1-1.3-1.19-.51-.25-1.04-.3-1.61-.17-.45.12-.91.3-1.41.58,0,0-.01,0-.03.01-.38.25-.84.49-1.38.72-.54.25-1.19.49-1.93.74-.72.25-1.59.43-2.58.59-.99.14-2.19.23-3.58.23-1.84,0-3.73-.42-5.57-1.25-1.8-.83-3.31-2-4.51-3.49-1.04-1.39-1.59-3.06-1.64-4.96h21.44c1.88,0,3.49-.55,4.81-1.64,1.32-1.16,2-3.13,2-5.86,0-1.68-.41-3.39-1.19-5.09-.78-1.67-1.93-3.2-3.38-4.57h.01Zm-2.75,9.73c0,.87-.17,1.44-.49,1.61-.26.14-.8.32-1.88.32h-18.56c.04-1.61.52-3.07,1.42-4.36,1-1.44,2.39-2.58,4.13-3.41,1.8-.87,3.8-1.32,5.93-1.32,1.84,0,3.48.35,4.87,1.01,1.44.67,2.57,1.57,3.38,2.67.8,1.03,1.19,2.17,1.19,3.48h.01Z"/>
        <path class="cls-3" d="m215.35,237.17c-1.33-.51-2.45-.55-3.29-.13-.77.42-1.39,1.29-1.9,2.64l-8.1,21.7-7.47-21.6c-.12-.46-.35-.91-.7-1.32-.29-.41-.7-.75-1.2-1.04-.49-.3-1.16-.45-2.07-.45-.78,0-1.45.16-1.99.45-.52.3-.94.7-1.25,1.19-.22.38-.41.8-.57,1.23l-7.54,21.4-8.12-21.93c-.46-1.26-1.09-2.04-1.9-2.3-.78-.3-1.81-.2-3.12.3-.83.28-1.45.61-1.91,1.01,0,0-.01.01-.03.03-.43.43-.68.99-.75,1.61v.06c0,.57.13,1.25.41,2.07v.03l11.68,30.09c.12.48.28.94.49,1.38.01.03.03.04.04.07.3.42.7.77,1.15.99.52.3,1.22.45,2.06.45.78,0,1.39-.12,1.87-.35.51-.2.88-.55,1.15-1.06.28-.43.51-.99.71-1.61l7.67-22.16,7.61,22.19c.22.52.45,1.03.71,1.51,0,0,0,.01.01.03.3.49.7.86,1.19,1.1.48.25,1.1.36,1.9.36s1.42-.14,1.9-.45c.54-.25.93-.59,1.17-1.03.28-.43.49-.88.65-1.3l11.7-30.12c.57-1.38.64-2.45.2-3.26-.42-.78-1.22-1.38-2.38-1.77h-.01.01Z"/>
      </g>
    </g>
  </g>
</svg>